<svg width="440" height="465" viewBox="0 0 440 465" fill="none" xmlns="http://www.w3.org/2000/svg">
<g filter="url(#filter0_d_22_1242)">
<path d="M306.784 302.089C306.784 302.089 306.787 302.089 306.787 302.089C306.728 302.117 276.085 316.549 227.299 290.116C174.512 256.467 149.258 260.747 112.512 264.524C111.364 264.642 110.349 263.766 110.305 262.613L110.105 257.317C110.071 256.431 110.626 255.628 111.467 255.346L196.221 226.903C196.221 226.903 284.83 194.065 329.765 209.61C330.581 209.892 331.055 210.675 330.821 211.506C329.881 214.858 325.893 224.468 309.037 243.384C292.409 262.046 276.276 299.788 306.784 302.089V302.089Z" fill="#055C9D"/>
<path d="M285.043 198.771C285.043 198.771 285.042 198.771 285.042 198.771L278.203 183.371C277.911 182.713 277.289 182.264 276.573 182.192L192.65 173.823C192.291 173.788 191.928 173.85 191.602 174.003L124.745 205.402C124.151 205.681 123.732 206.234 123.623 206.882L117.658 242.453C117.406 243.958 118.905 245.166 120.343 244.656C204.29 214.883 242.966 205.994 250.823 204.329C251.734 204.136 252.383 203.357 252.421 202.426L252.743 194.553C252.788 193.449 253.719 192.591 254.823 192.636L262.89 192.965C263.994 193.011 264.852 193.942 264.807 195.045L264.644 199.022C264.591 200.332 265.792 201.352 267.086 201.133C273.585 200.031 285.037 198.771 285.043 198.771C285.043 198.771 285.043 198.771 285.043 198.771V198.771ZM136.792 225.105C136.758 225.926 136.226 226.643 135.45 226.913L133.408 227.622C132.076 228.085 130.696 227.061 130.753 225.652L130.907 221.881C130.939 221.094 131.431 220.399 132.162 220.106L134.208 219.287C135.555 218.748 137.009 219.777 136.95 221.226L136.792 225.105ZM152.348 221.037C152.348 221.038 152.347 221.038 152.347 221.039L145.941 223.265C144.609 223.728 143.228 222.704 143.286 221.294L143.467 216.854C143.499 216.066 143.991 215.371 144.722 215.079L149.855 213.024C151.201 212.485 152.655 213.514 152.596 214.963L152.348 221.037V221.037ZM170.113 213.519C170.079 214.34 169.547 215.057 168.771 215.326L162.958 217.347C161.626 217.81 160.246 216.786 160.303 215.376L160.522 210.026C160.554 209.239 161.046 208.544 161.777 208.251L167.603 205.92C168.949 205.382 170.403 206.41 170.344 207.859L170.113 213.519ZM189.42 206.806C189.386 207.627 188.854 208.344 188.079 208.614L180.666 211.192C179.334 211.655 177.953 210.631 178.011 209.221L178.268 202.923C178.3 202.135 178.792 201.44 179.523 201.148L186.952 198.174C188.298 197.635 189.752 198.663 189.693 200.112L189.42 206.806ZM222 201.489C221.955 202.592 221.024 203.45 219.92 203.405L210.49 203.02C209.386 202.975 208.528 202.044 208.573 200.94L208.955 191.583C209 190.479 209.932 189.621 211.035 189.666L220.466 190.051C221.569 190.096 222.428 191.027 222.382 192.131L222 201.489ZM243.684 202.374C243.639 203.478 242.708 204.336 241.604 204.291L232.173 203.906C231.07 203.861 230.212 202.929 230.257 201.826L230.639 192.468C230.684 191.365 231.615 190.506 232.719 190.552L242.149 190.937C243.253 190.982 244.111 191.913 244.066 193.017L243.684 202.374Z" fill="#055C9D"/>
<path d="M146.184 188.628C146.184 188.629 146.183 188.628 146.183 188.628L150.524 163.545C150.635 162.906 151.048 162.36 151.633 162.081L178.42 149.299C178.714 149.158 179.037 149.092 179.363 149.105L214.429 150.537C215.53 150.582 216.387 151.509 216.346 152.61L216.142 158.142C216.102 159.208 216.907 160.118 217.97 160.209L248.005 162.779C249.745 162.927 251.25 164.049 251.883 165.669L253.668 170.237C254.211 171.626 253.096 173.1 251.611 172.955L191.319 167.078C190.952 167.042 190.584 167.108 190.252 167.269L146.185 188.628C146.185 188.628 146.184 188.628 146.184 188.628V188.628Z" fill="#055C9D"/>
<path d="M197.517 115.942L195.506 115.86C191.541 115.698 188.195 118.765 188.034 122.708L187.305 140.561C187.26 141.665 188.118 142.596 189.222 142.641L201.596 143.146C202.7 143.192 203.631 142.333 203.676 141.23L204.405 123.377C204.566 119.433 201.481 116.104 197.517 115.942Z" fill="#055C9D"/>
</g>
<g filter="url(#filter1_d_22_1242)">
<path d="M341.759 356.105L340.439 354.717C339.671 353.909 339.712 352.628 340.53 351.87L358.404 335.337C359.207 334.595 360.458 334.635 361.212 335.427L362.651 336.94C364.414 338.793 364.951 341.334 364.302 343.609C364.021 344.592 364.209 345.721 365.026 346.335L394.688 368.64C402.489 374.504 403.054 385.847 395.875 392.433C388.694 399.018 377.211 397.692 371.783 389.651L351.116 359.032C350.557 358.205 349.477 357.947 348.501 358.158C346.124 358.673 343.541 357.979 341.759 356.105Z" fill="#1B9AC9"/>
<path d="M250.385 393.019L250.404 391.104C250.414 389.988 249.511 389.08 248.396 389.084L224.048 389.183C222.954 389.187 222.067 390.069 222.056 391.163L222.035 393.252C222.01 395.809 223.35 398.034 225.376 399.254C226.252 399.781 226.884 400.735 226.705 401.742L220.223 438.284C218.518 447.893 225.841 456.574 235.583 456.494C245.325 456.414 252.82 447.612 251.305 438.029L245.538 401.541C245.382 400.556 245.997 399.63 246.854 399.119C248.944 397.874 250.359 395.605 250.385 393.019Z" fill="#1B9AC9"/>
<path d="M132.348 356.806L133.707 355.456C134.499 354.671 134.495 353.389 133.698 352.609L116.31 335.566C115.529 334.8 114.277 334.804 113.501 335.574L112.018 337.045C110.203 338.846 109.592 341.371 110.176 343.663C110.428 344.654 110.207 345.777 109.373 346.368L79.0781 367.805C71.1109 373.442 70.219 384.764 77.2045 391.554C84.1916 398.344 95.7085 397.351 101.367 389.47L122.91 359.461C123.492 358.651 124.58 358.424 125.549 358.664C127.91 359.246 130.512 358.627 132.348 356.806Z" fill="#1B9AC9"/>
<path d="M382.308 201.247C389.158 200.391 395.406 205.251 396.262 212.101C401.079 250.655 391.746 289.648 369.997 321.844C348.248 354.039 315.557 377.253 277.992 387.177C240.427 397.1 200.536 393.06 165.724 375.805C134.959 360.557 110.008 335.902 94.3711 305.595L118.09 296.963C131.359 321.253 151.818 341.01 176.826 353.405C206.216 367.972 239.892 371.383 271.606 363.006C303.32 354.628 330.92 335.03 349.281 307.849C367.643 280.668 375.521 247.749 371.454 215.2C370.599 208.35 375.458 202.103 382.308 201.247Z" fill="#1B9AC9"/>
</g>
<g filter="url(#filter2_d_22_1242)">
<path d="M250.965 70.25L250.951 72.1653C250.942 73.2807 250.023 74.1735 248.908 74.1495L224.565 73.6262C223.472 73.6027 222.6 72.7052 222.608 71.6116L222.624 69.5228C222.643 66.9658 224.022 64.7643 226.069 63.5797C226.954 63.0676 227.603 62.1247 227.442 61.1149L221.599 24.4654C220.061 14.8279 227.535 6.27641 237.273 6.5261C247.013 6.77691 254.353 15.7074 252.671 25.2629L246.268 61.6446C246.095 62.6274 246.694 63.5635 247.542 64.0892C249.609 65.3704 250.985 67.6641 250.965 70.25Z" fill="#055C9D"/>
<path d="M362.168 127.515L360.827 128.882C360.045 129.678 358.764 129.681 357.979 128.888L340.841 111.593C340.071 110.816 340.068 109.565 340.834 108.785L342.298 107.294C344.089 105.469 346.61 104.844 348.905 105.415C349.897 105.662 351.019 105.435 351.605 104.597L372.877 74.1861C378.47 66.1883 389.787 65.2346 396.615 72.1829C403.443 79.1328 402.513 90.6549 394.663 96.3563L364.773 118.063C363.965 118.65 363.745 119.739 363.989 120.706C364.585 123.064 363.98 125.669 362.168 127.515Z" fill="#055C9D"/>
<path d="M132.106 107.579L133.457 108.937C134.244 109.727 134.232 111.009 133.43 111.784L115.936 128.719C115.15 129.48 113.899 129.468 113.128 128.693L111.654 127.213C109.85 125.4 109.255 122.872 109.853 120.584C110.111 119.594 109.897 118.47 109.066 117.874L78.9054 96.2489C70.9734 90.5631 70.1517 79.2357 77.1793 72.489C84.2084 65.7422 95.7188 66.8068 101.328 74.7232L122.685 104.865C123.262 105.679 124.348 105.912 125.319 105.679C127.683 105.111 130.281 105.746 132.106 107.579Z" fill="#055C9D"/>
<path d="M74.598 214.91L76.5123 214.846C77.6271 214.808 78.557 215.69 78.5789 216.805L79.0575 241.148C79.079 242.242 78.2182 243.15 77.1252 243.187L75.0375 243.257C72.4818 243.343 70.2255 242.056 68.9576 240.059C68.4095 239.196 67.4408 238.587 66.4384 238.789L30.0604 246.135C20.4944 248.068 11.6426 240.953 11.4914 231.212C11.3413 221.47 19.9623 213.769 29.5789 215.056L66.1932 219.957C67.1823 220.089 68.0929 219.453 68.5833 218.584C69.7784 216.466 72.0135 214.997 74.598 214.91Z" fill="#055C9D"/>
<path d="M156.391 93.2114C189.989 73.6976 229.525 67.0345 267.664 74.4575C305.802 81.8806 339.953 102.886 363.78 133.577C368.013 139.03 367.024 146.882 361.571 151.116C356.118 155.349 348.265 154.361 344.032 148.908C323.917 122.997 295.085 105.263 262.887 98.9966C230.69 92.7299 197.311 98.3553 168.947 114.83C140.582 131.304 119.157 157.509 108.646 188.582C100.315 213.209 99.2894 239.569 105.465 264.537L81.6919 272.489C73.832 242.34 74.8782 210.383 84.9634 180.57C97.4137 143.765 122.793 112.725 156.391 93.2114Z" fill="#055C9D"/>
</g>
<g filter="url(#filter3_d_22_1242)">
<path d="M103.445 298.198C116.884 294.382 130.768 293.611 144.52 296.211C156.808 298.534 168.79 303.444 180.453 309.471C191.915 315.397 203.094 322.344 214.431 328.72C224.225 334.228 234.228 339.144 244.525 342.3C262.216 347.719 281.099 347.135 298.263 340.762C301.93 339.399 305.55 337.778 309.058 335.809C310.257 335.138 311.779 334.533 312.837 333.476C301.702 344.62 288.526 351.68 274.967 355.538C263.593 358.775 251.858 359.818 240.171 358.929C220.746 357.453 200.992 349.946 183.24 338.38C172.494 331.38 161.798 323.988 150.436 319.188C132.693 311.694 114.061 308.918 95.7314 309.551C89.8108 309.755 83.9001 310.314 78.041 311.309C76.1407 311.63 73.4596 311.554 71.6357 312.564C81.8268 306.346 92.4552 301.318 103.445 298.198ZM71.4648 312.667H71.4629L71.4639 312.666C71.5099 312.637 71.5563 312.609 71.6035 312.583C71.5573 312.611 71.5111 312.639 71.4648 312.667Z" fill="#1B9AC9"/>
</g>
<g filter="url(#filter4_d_22_1242)">
<path d="M67.054 304.94C67.054 304.94 90.1024 267.458 146.375 268.969C202.647 270.48 226.168 312.454 272.068 313.684C272.068 313.684 310.298 313.883 324.051 289.907C324.051 289.907 306.06 292.238 295.848 287.981C295.848 287.981 348.007 288.722 350.399 222.43C350.399 222.43 373.368 295.232 293.892 328.035C293.892 328.035 252.06 345.355 198.437 313.847C144.813 282.34 109.43 284.765 67.0555 304.938L67.054 304.94Z" fill="#1B9AC9"/>
</g>
<g filter="url(#filter5_d_22_1242)">
<circle cx="318" cy="148" r="4" fill="#1B9AC9"/>
</g>
<g filter="url(#filter6_d_22_1242)">
<circle cx="356" cy="199" r="5" fill="#1B9AC9"/>
</g>
<g filter="url(#filter7_d_22_1242)">
<circle cx="382" cy="190" r="6" fill="#1B9AC9"/>
</g>
<g filter="url(#filter8_d_22_1242)">
<circle cx="371" cy="166" r="8" fill="#1B9AC9"/>
</g>
<g filter="url(#filter9_d_22_1242)">
<circle cx="397" cy="154" r="7" fill="#1B9AC9"/>
</g>
<g filter="url(#filter10_d_22_1242)">
<circle cx="402" cy="185" r="5" fill="#1B9AC9"/>
</g>
<g filter="url(#filter11_d_22_1242)">
<circle cx="421" cy="167" r="4" fill="#1B9AC9"/>
</g>
<g filter="url(#filter12_d_22_1242)">
<circle cx="428" cy="203" r="8" fill="#1B9AC9"/>
</g>
<g filter="url(#filter13_d_22_1242)">
<circle cx="337" cy="172" r="6" fill="#1B9AC9"/>
</g>
<defs>
<filter id="filter0_d_22_1242" x="106.103" y="115.854" width="228.778" height="198.192" filterUnits="userSpaceOnUse" color-interpolation-filters="sRGB">
<feFlood flood-opacity="0" result="BackgroundImageFix"/>
<feColorMatrix in="SourceAlpha" type="matrix" values="0 0 0 0 0 0 0 0 0 0 0 0 0 0 0 0 0 0 127 0" result="hardAlpha"/>
<feOffset dy="4"/>
<feGaussianBlur stdDeviation="2"/>
<feComposite in2="hardAlpha" operator="out"/>
<feColorMatrix type="matrix" values="0 0 0 0 0 0 0 0 0 0 0 0 0 0 0 0 0 0 0.25 0"/>
<feBlend mode="normal" in2="BackgroundImageFix" result="effect1_dropShadow_22_1242"/>
<feBlend mode="normal" in="SourceGraphic" in2="effect1_dropShadow_22_1242" result="shape"/>
</filter>
<filter id="filter1_d_22_1242" x="-4" y="0" width="408.918" height="471.007" filterUnits="userSpaceOnUse" color-interpolation-filters="sRGB">
<feFlood flood-opacity="0" result="BackgroundImageFix"/>
<feColorMatrix in="SourceAlpha" type="matrix" values="0 0 0 0 0 0 0 0 0 0 0 0 0 0 0 0 0 0 127 0" result="hardAlpha"/>
<feOffset dy="4"/>
<feGaussianBlur stdDeviation="2"/>
<feComposite in2="hardAlpha" operator="out"/>
<feColorMatrix type="matrix" values="0 0 0 0 0 0 0 0 0 0 0 0 0 0 0 0 0 0 0.25 0"/>
<feBlend mode="normal" in2="BackgroundImageFix" result="effect1_dropShadow_22_1242"/>
<feBlend mode="normal" in="SourceGraphic" in2="effect1_dropShadow_22_1242" result="shape"/>
</filter>
<filter id="filter2_d_22_1242" x="-4" y="0" width="409.197" height="471.007" filterUnits="userSpaceOnUse" color-interpolation-filters="sRGB">
<feFlood flood-opacity="0" result="BackgroundImageFix"/>
<feColorMatrix in="SourceAlpha" type="matrix" values="0 0 0 0 0 0 0 0 0 0 0 0 0 0 0 0 0 0 127 0" result="hardAlpha"/>
<feOffset dy="4"/>
<feGaussianBlur stdDeviation="2"/>
<feComposite in2="hardAlpha" operator="out"/>
<feColorMatrix type="matrix" values="0 0 0 0 0 0 0 0 0 0 0 0 0 0 0 0 0 0 0.25 0"/>
<feBlend mode="normal" in2="BackgroundImageFix" result="effect1_dropShadow_22_1242"/>
<feBlend mode="normal" in="SourceGraphic" in2="effect1_dropShadow_22_1242" result="shape"/>
</filter>
<filter id="filter3_d_22_1242" x="67.4629" y="294.688" width="249.374" height="72.5447" filterUnits="userSpaceOnUse" color-interpolation-filters="sRGB">
<feFlood flood-opacity="0" result="BackgroundImageFix"/>
<feColorMatrix in="SourceAlpha" type="matrix" values="0 0 0 0 0 0 0 0 0 0 0 0 0 0 0 0 0 0 127 0" result="hardAlpha"/>
<feOffset dy="4"/>
<feGaussianBlur stdDeviation="2"/>
<feComposite in2="hardAlpha" operator="out"/>
<feColorMatrix type="matrix" values="0 0 0 0 0 0 0 0 0 0 0 0 0 0 0 0 0 0 0.25 0"/>
<feBlend mode="normal" in2="BackgroundImageFix" result="effect1_dropShadow_22_1242"/>
<feBlend mode="normal" in="SourceGraphic" in2="effect1_dropShadow_22_1242" result="shape"/>
</filter>
<filter id="filter4_d_22_1242" x="63.054" y="222.43" width="294.427" height="118.355" filterUnits="userSpaceOnUse" color-interpolation-filters="sRGB">
<feFlood flood-opacity="0" result="BackgroundImageFix"/>
<feColorMatrix in="SourceAlpha" type="matrix" values="0 0 0 0 0 0 0 0 0 0 0 0 0 0 0 0 0 0 127 0" result="hardAlpha"/>
<feOffset dy="4"/>
<feGaussianBlur stdDeviation="2"/>
<feComposite in2="hardAlpha" operator="out"/>
<feColorMatrix type="matrix" values="0 0 0 0 0 0 0 0 0 0 0 0 0 0 0 0 0 0 0.25 0"/>
<feBlend mode="normal" in2="BackgroundImageFix" result="effect1_dropShadow_22_1242"/>
<feBlend mode="normal" in="SourceGraphic" in2="effect1_dropShadow_22_1242" result="shape"/>
</filter>
<filter id="filter5_d_22_1242" x="310" y="141" width="16" height="16" filterUnits="userSpaceOnUse" color-interpolation-filters="sRGB">
<feFlood flood-opacity="0" result="BackgroundImageFix"/>
<feColorMatrix in="SourceAlpha" type="matrix" values="0 0 0 0 0 0 0 0 0 0 0 0 0 0 0 0 0 0 127 0" result="hardAlpha"/>
<feOffset dy="1"/>
<feGaussianBlur stdDeviation="2"/>
<feComposite in2="hardAlpha" operator="out"/>
<feColorMatrix type="matrix" values="0 0 0 0 0 0 0 0 0 0 0 0 0 0 0 0 0 0 0.25 0"/>
<feBlend mode="normal" in2="BackgroundImageFix" result="effect1_dropShadow_22_1242"/>
<feBlend mode="normal" in="SourceGraphic" in2="effect1_dropShadow_22_1242" result="shape"/>
</filter>
<filter id="filter6_d_22_1242" x="347" y="191" width="18" height="18" filterUnits="userSpaceOnUse" color-interpolation-filters="sRGB">
<feFlood flood-opacity="0" result="BackgroundImageFix"/>
<feColorMatrix in="SourceAlpha" type="matrix" values="0 0 0 0 0 0 0 0 0 0 0 0 0 0 0 0 0 0 127 0" result="hardAlpha"/>
<feOffset dy="1"/>
<feGaussianBlur stdDeviation="2"/>
<feComposite in2="hardAlpha" operator="out"/>
<feColorMatrix type="matrix" values="0 0 0 0 0 0 0 0 0 0 0 0 0 0 0 0 0 0 0.25 0"/>
<feBlend mode="normal" in2="BackgroundImageFix" result="effect1_dropShadow_22_1242"/>
<feBlend mode="normal" in="SourceGraphic" in2="effect1_dropShadow_22_1242" result="shape"/>
</filter>
<filter id="filter7_d_22_1242" x="372" y="181" width="20" height="20" filterUnits="userSpaceOnUse" color-interpolation-filters="sRGB">
<feFlood flood-opacity="0" result="BackgroundImageFix"/>
<feColorMatrix in="SourceAlpha" type="matrix" values="0 0 0 0 0 0 0 0 0 0 0 0 0 0 0 0 0 0 127 0" result="hardAlpha"/>
<feOffset dy="1"/>
<feGaussianBlur stdDeviation="2"/>
<feComposite in2="hardAlpha" operator="out"/>
<feColorMatrix type="matrix" values="0 0 0 0 0 0 0 0 0 0 0 0 0 0 0 0 0 0 0.25 0"/>
<feBlend mode="normal" in2="BackgroundImageFix" result="effect1_dropShadow_22_1242"/>
<feBlend mode="normal" in="SourceGraphic" in2="effect1_dropShadow_22_1242" result="shape"/>
</filter>
<filter id="filter8_d_22_1242" x="359" y="155" width="24" height="24" filterUnits="userSpaceOnUse" color-interpolation-filters="sRGB">
<feFlood flood-opacity="0" result="BackgroundImageFix"/>
<feColorMatrix in="SourceAlpha" type="matrix" values="0 0 0 0 0 0 0 0 0 0 0 0 0 0 0 0 0 0 127 0" result="hardAlpha"/>
<feOffset dy="1"/>
<feGaussianBlur stdDeviation="2"/>
<feComposite in2="hardAlpha" operator="out"/>
<feColorMatrix type="matrix" values="0 0 0 0 0 0 0 0 0 0 0 0 0 0 0 0 0 0 0.25 0"/>
<feBlend mode="normal" in2="BackgroundImageFix" result="effect1_dropShadow_22_1242"/>
<feBlend mode="normal" in="SourceGraphic" in2="effect1_dropShadow_22_1242" result="shape"/>
</filter>
<filter id="filter9_d_22_1242" x="386" y="144" width="22" height="22" filterUnits="userSpaceOnUse" color-interpolation-filters="sRGB">
<feFlood flood-opacity="0" result="BackgroundImageFix"/>
<feColorMatrix in="SourceAlpha" type="matrix" values="0 0 0 0 0 0 0 0 0 0 0 0 0 0 0 0 0 0 127 0" result="hardAlpha"/>
<feOffset dy="1"/>
<feGaussianBlur stdDeviation="2"/>
<feComposite in2="hardAlpha" operator="out"/>
<feColorMatrix type="matrix" values="0 0 0 0 0 0 0 0 0 0 0 0 0 0 0 0 0 0 0.25 0"/>
<feBlend mode="normal" in2="BackgroundImageFix" result="effect1_dropShadow_22_1242"/>
<feBlend mode="normal" in="SourceGraphic" in2="effect1_dropShadow_22_1242" result="shape"/>
</filter>
<filter id="filter10_d_22_1242" x="393" y="177" width="18" height="18" filterUnits="userSpaceOnUse" color-interpolation-filters="sRGB">
<feFlood flood-opacity="0" result="BackgroundImageFix"/>
<feColorMatrix in="SourceAlpha" type="matrix" values="0 0 0 0 0 0 0 0 0 0 0 0 0 0 0 0 0 0 127 0" result="hardAlpha"/>
<feOffset dy="1"/>
<feGaussianBlur stdDeviation="2"/>
<feComposite in2="hardAlpha" operator="out"/>
<feColorMatrix type="matrix" values="0 0 0 0 0 0 0 0 0 0 0 0 0 0 0 0 0 0 0.25 0"/>
<feBlend mode="normal" in2="BackgroundImageFix" result="effect1_dropShadow_22_1242"/>
<feBlend mode="normal" in="SourceGraphic" in2="effect1_dropShadow_22_1242" result="shape"/>
</filter>
<filter id="filter11_d_22_1242" x="413" y="160" width="16" height="16" filterUnits="userSpaceOnUse" color-interpolation-filters="sRGB">
<feFlood flood-opacity="0" result="BackgroundImageFix"/>
<feColorMatrix in="SourceAlpha" type="matrix" values="0 0 0 0 0 0 0 0 0 0 0 0 0 0 0 0 0 0 127 0" result="hardAlpha"/>
<feOffset dy="1"/>
<feGaussianBlur stdDeviation="2"/>
<feComposite in2="hardAlpha" operator="out"/>
<feColorMatrix type="matrix" values="0 0 0 0 0 0 0 0 0 0 0 0 0 0 0 0 0 0 0.25 0"/>
<feBlend mode="normal" in2="BackgroundImageFix" result="effect1_dropShadow_22_1242"/>
<feBlend mode="normal" in="SourceGraphic" in2="effect1_dropShadow_22_1242" result="shape"/>
</filter>
<filter id="filter12_d_22_1242" x="416" y="192" width="24" height="24" filterUnits="userSpaceOnUse" color-interpolation-filters="sRGB">
<feFlood flood-opacity="0" result="BackgroundImageFix"/>
<feColorMatrix in="SourceAlpha" type="matrix" values="0 0 0 0 0 0 0 0 0 0 0 0 0 0 0 0 0 0 127 0" result="hardAlpha"/>
<feOffset dy="1"/>
<feGaussianBlur stdDeviation="2"/>
<feComposite in2="hardAlpha" operator="out"/>
<feColorMatrix type="matrix" values="0 0 0 0 0 0 0 0 0 0 0 0 0 0 0 0 0 0 0.25 0"/>
<feBlend mode="normal" in2="BackgroundImageFix" result="effect1_dropShadow_22_1242"/>
<feBlend mode="normal" in="SourceGraphic" in2="effect1_dropShadow_22_1242" result="shape"/>
</filter>
<filter id="filter13_d_22_1242" x="327" y="163" width="20" height="20" filterUnits="userSpaceOnUse" color-interpolation-filters="sRGB">
<feFlood flood-opacity="0" result="BackgroundImageFix"/>
<feColorMatrix in="SourceAlpha" type="matrix" values="0 0 0 0 0 0 0 0 0 0 0 0 0 0 0 0 0 0 127 0" result="hardAlpha"/>
<feOffset dy="1"/>
<feGaussianBlur stdDeviation="2"/>
<feComposite in2="hardAlpha" operator="out"/>
<feColorMatrix type="matrix" values="0 0 0 0 0 0 0 0 0 0 0 0 0 0 0 0 0 0 0.25 0"/>
<feBlend mode="normal" in2="BackgroundImageFix" result="effect1_dropShadow_22_1242"/>
<feBlend mode="normal" in="SourceGraphic" in2="effect1_dropShadow_22_1242" result="shape"/>
</filter>
</defs>
</svg>
