<?xml version="1.0" encoding="utf-8"?>
<!DOCTYPE svg PUBLIC "-//W3C//DTD SVG 1.0//EN" "http://www.w3.org/TR/2001/REC-SVG-20010904/DTD/svg10.dtd">
<svg version="1.0" xmlns="http://www.w3.org/2000/svg" width="1024px" height="1024px" viewBox="0 0 1024 1024" preserveAspectRatio="xMidYMid meet">
 <g fill="#ffffff">
  <path d="M501.5 771.6 c-4.1 -1.8 -11 -9.5 -12.6 -14.2 -0.9 -2.5 -1.4 -8.2 -1.4 -16.4 0.1 -10.2 0.7 -15.3 3.3 -27.4 3.8 -17.6 3.9 -19.7 1.1 -21.4 -1.1 -0.7 -2.8 -3.2 -3.9 -5.7 -1 -2.4 -2.7 -4.6 -3.7 -4.9 -1 -0.2 -5.8 -1.4 -10.8 -2.6 -36.8 -8.5 -64.8 -21.1 -95.7 -43.2 -5.6 -4 -10.8 -7.7 -11.5 -8.1 -0.9 -0.5 -2.4 0.1 -4.4 1.7 -3.1 2.6 -7.6 3.9 -11.9 3.4 -2.6 -0.3 -4.9 2.6 -20.5 27.2 -7.3 11.6 -16.4 21.4 -22.7 24.6 -3.9 2 -6.2 2.4 -13 2.4 -9.9 0 -14.6 -2.1 -19.1 -8.7 -3.8 -5.4 -4.8 -15.1 -2.3 -23.6 2.3 -7.9 11.1 -17.1 30.1 -31.2 19.5 -14.5 19.9 -15.1 19.6 -21.9 -0.2 -4.4 0.2 -5.8 2.3 -8.3 1.4 -1.7 2.6 -3.4 2.6 -3.8 0 -0.8 -5.1 -7.6 -6.5 -8.8 -0.5 -0.5 -11.2 -0.6 -23.7 -0.4 -15.2 0.3 -23 0.1 -23.7 -0.6 -1.7 -1.7 -1.3 -5.2 0.7 -7 3 -2.7 14.3 -7.5 23.2 -9.8 5.9 -1.6 9.1 -3 10.5 -4.6 2.8 -3.4 7.7 -4.3 25.6 -5 24.4 -0.9 48.6 2.4 74.2 10.2 16.6 5 28.9 10.1 56.7 23.5 26.5 12.7 40.5 18.4 54.5 22.3 35.6 10 59.6 10 96.8 0.1 11.6 -3 13.6 -2.8 14.7 1.5 0.5 2.1 0.8 2 8.3 -2.4 22.2 -13.1 48 -36.4 62.2 -56.5 3.4 -4.8 2.3 -4 -8.6 6.5 -17.8 17.1 -35 28.5 -52.7 34.9 -25.4 9.1 -63.5 13.6 -90.3 10.6 -24.2 -2.6 -52.6 -11.8 -80.9 -26 -38.7 -19.5 -76.5 -30.1 -112 -31.7 -22.7 -0.9 -43.4 2.1 -65.4 9.7 -11.5 4 -32.3 13 -40.3 17.5 -5 2.8 -7.3 3.1 -9.1 1.3 -2.4 -2.4 -1.2 -6.2 4.4 -13.4 15.6 -20.4 41.1 -38.5 68.9 -48.9 39.8 -14.9 89.4 -13.7 139.8 3.4 11.2 3.8 16 5.8 55.2 23.1 23.2 10.2 52.4 20.2 65.5 22.5 21.5 3.8 46.8 0.6 68.3 -8.6 12.4 -5.3 21.9 -11.1 29 -18.1 l6.2 -6 -4 0.6 c-10.4 1.5 -26.5 1.8 -33 0.7 -7.8 -1.4 -9.5 -2.4 -9.5 -5.5 0 -2.9 1.8 -4.6 4.7 -4.6 4.8 0 18 -3.3 25.1 -6.2 19.6 -8.1 37.8 -25.1 47.6 -44.6 7.3 -14.4 11.3 -34.7 9.9 -50.7 -0.4 -5.3 -0.2 -7.9 0.7 -9 1.5 -1.8 5.4 -2 6.8 -0.2 1.6 2 5.9 24.2 7.3 37.2 1.3 12.7 0.7 33.6 -1.1 41.4 -1.9 7.7 -0.3 5.5 2.8 -4.1 6.3 -19 8.9 -34.8 10.3 -61.2 0.6 -12 1.5 -20.6 2.1 -21.4 1.6 -1.8 32.7 -1.4 35 0.6 3.6 3 2.7 39.1 -1.7 64.6 -7.6 44.2 -22.9 78.6 -52.5 118.1 -7.5 9.9 -33 35.5 -45.4 45.3 -21.1 16.9 -52.1 34 -75.1 41.5 -17.8 5.8 -38.5 10.2 -55 11.7 -15.8 1.4 -16 1.4 -18.4 5.5 -1.1 2 -2.7 3.8 -3.6 4.1 -2.1 0.8 -2 2.4 2.1 22.3 3.2 15.9 3.6 18.8 3.2 29.6 -0.4 9.8 -0.8 12.8 -2.6 16.2 -2.6 5 -8.4 10 -13.2 11.3 -5 1.4 -15.9 1.2 -19.5 -0.4z m19.7 -9.1 c5.1 -3.4 7.9 -9.2 8.5 -17.9 0.4 -5.7 -0.2 -10.6 -3.1 -24.7 -4.3 -21.1 -4.9 -33.9 -1.6 -33.9 1.2 0 2.6 -1.2 3.5 -3 2.5 -4.8 5 -5.7 18.8 -6.9 13.4 -1.2 21.6 -2.6 38.2 -6.7 21.4 -5.3 36.7 -11.4 57.8 -23.3 23.9 -13.3 35.8 -22.4 57.6 -43.6 15.2 -14.8 22.6 -24 36.4 -45 25.4 -38.7 39.1 -82.8 40.4 -130.1 l0.6 -19.1 -3.3 -0.6 c-1.8 -0.4 -7.2 -0.7 -12.1 -0.7 -7.8 0 -8.9 0.2 -8.9 1.8 -0.3 14.1 -2.4 41.2 -4.1 51 -5.2 31 -18.4 62.9 -37.2 89.7 -16.4 23.4 -30.8 38.4 -52.1 54.2 -28.1 20.9 -57 33 -94.2 39.5 -11.2 1.9 -16.5 2.2 -40.9 2.3 -26.9 0 -28.5 -0.1 -40.8 -2.8 -35.6 -7.7 -67.3 -23.2 -100.5 -49.2 -9.2 -7.2 -10.2 -8.3 -10.2 -11.2 0 -3.1 0.2 -3.3 3.3 -3.3 5 0 23 6.8 36.2 13.7 42 22.2 68.8 32.7 96.7 38 14.8 2.8 39.8 2.4 55.8 -1 6.9 -1.4 15.2 -3.5 18.5 -4.5 l6 -1.9 -15.5 0.5 c-22.7 0.6 -39.8 -1.4 -61.5 -7.5 -14 -3.9 -28 -9.6 -54.5 -22.3 -13.5 -6.5 -29.1 -13.7 -34.8 -15.9 -30.6 -12.2 -66.1 -19.1 -90.7 -17.7 -13.8 0.8 -17.8 1.7 -20.7 4.9 -1.6 1.7 -4.6 3.1 -9.8 4.3 l-7.5 1.8 4.5 0.7 c2.5 0.4 8.9 0.8 14.2 0.8 5.3 0.1 10.3 0.4 11.2 0.7 0.9 0.3 3.6 3.4 6.1 6.9 5.6 7.9 5.9 11.7 1.5 16 -2.7 2.6 -3 3.5 -3 9 0 6 0 6.1 -5.2 11.2 -2.9 2.8 -11.4 9.5 -18.8 15 -16.5 12.1 -24.3 20.3 -26.5 27.5 -2.3 8 0.6 15.3 7.6 18.8 5.1 2.6 8.9 2.5 14.7 -0.4 8.1 -4.1 12.6 -9.8 31.3 -39.1 2.4 -3.8 5.7 -8.4 7.3 -10.2 2.5 -3 3.3 -3.3 8.3 -3.3 5.1 0 5.8 -0.3 9.5 -4 2.5 -2.4 5 -4 6.4 -4 1.4 0 5.2 2.1 8.7 4.8 33.5 26 67.8 42.2 107.2 50.7 10 2.1 12.1 3.5 14.5 9.1 1.3 3 2.5 4.4 3.8 4.4 1.5 0 2.1 1 2.6 4.2 0.8 5.1 0.3 9.2 -3.6 28.3 -4.8 23.3 -4.2 33.6 2.5 41.2 6 6.8 13.3 7.8 20.9 2.8z m-27.2 -127.2 c-29.1 -8 -53.5 -18.1 -82 -33.8 -10.5 -5.8 -9.5 -4.6 3 3.5 19.6 12.7 46.7 24.3 69.3 29.5 11.3 2.6 18.4 3.2 9.7 0.8z m94.7 -38.8 c45.8 -6 69.9 -17.2 98.9 -46 14.5 -14.3 20.9 -23 28.4 -38.8 8.9 -18.5 12.7 -36.8 11.5 -55.4 -0.4 -5.7 -1.1 -10.3 -1.6 -10.3 -0.5 0 -0.9 1.2 -0.9 2.6 0 3.4 -5.2 18.9 -8.6 25.6 -4.7 9.2 -10.5 17.1 -18.8 25.3 -9.2 9.2 -17.7 15.3 -27.8 20 l-7 3.2 11.4 -0.1 11.3 -0.1 0.3 5.4 0.3 5.4 -7.3 7.2 c-14.2 13.9 -35.2 23.6 -60.2 28 -11.6 2 -37.3 2 -48.6 0 -13.1 -2.3 -42.3 -12.3 -65.5 -22.5 -39.2 -17.3 -44 -19.3 -55.2 -23.1 -31.2 -10.6 -64.9 -15.5 -88.3 -12.9 -28.9 3.1 -53.4 12 -77.2 27.9 -9.5 6.3 -26.4 20.8 -25.5 21.7 0.2 0.3 3.9 -1.2 8.2 -3.2 29 -13.1 55 -18.1 89.5 -17.1 39.6 1.2 75.8 11 117 31.7 18.7 9.4 38.8 17.1 56.5 21.6 20.7 5.3 39 6.5 59.2 3.9z"/>
  <path d="M581 554.6 c-4.1 -0.7 -11.8 -2.5 -17.1 -4 -15.5 -4.2 -24.7 -7.7 -68.4 -26.1 -29.7 -12.5 -52.7 -19.7 -77 -24.1 -15.1 -2.7 -46.7 -2.5 -63.8 0.4 -14.6 2.5 -18.1 2.7 -19.5 1 -0.5 -0.7 -1.3 -4.8 -1.7 -9.1 -0.8 -9.4 0.4 -11.8 7.3 -14.8 4.8 -2.1 59.4 -23 107.2 -41.1 80.5 -30.5 126.2 -42.9 171.5 -46.9 25.3 -2.1 55.1 0.7 60.8 5.9 2.4 2.1 2 5 -2.2 15.7 -4.4 11.4 -10.4 21.1 -22.6 36.3 -5.9 7.4 -12.1 15.7 -13.9 18.5 -8.4 13.1 -15.4 30.6 -18.1 45.1 -1.8 9.3 -1.2 13.3 2.3 18.4 2.8 3.8 11.1 8.2 17.2 8.9 5.7 0.7 7.3 2 6.8 6 -0.4 3.3 -4.1 5.4 -15.7 8.5 -9.8 2.6 -41.5 3.4 -53.1 1.4z m45.3 -7.7 c3.1 -0.7 5.7 -1.6 5.7 -1.9 -0.1 -0.3 -2.4 -1.8 -5.3 -3.5 -7.7 -4.5 -10.9 -9.7 -11.5 -18.7 -1 -16.5 7.1 -42.2 19.4 -61.5 1.8 -2.8 8 -11.1 13.9 -18.5 5.9 -7.3 12.4 -16.3 14.6 -20 4.5 -7.4 10.3 -20.7 9.5 -21.5 -0.3 -0.3 -4 -1.4 -8.2 -2.4 -23.3 -5.5 -56.8 -2.4 -107.3 10.2 -33.3 8.3 -56.3 16.4 -168.6 59.2 -51.8 19.8 -47.5 17.8 -47.5 22.7 0 2.2 0.5 4 1 4 0.6 0 5.4 -0.8 10.8 -1.7 14.2 -2.5 56.7 -2.5 70.7 0.1 24.5 4.4 47.4 11.6 77 24.1 43.7 18.4 52.9 21.9 68.4 26.1 5.3 1.5 13 3.3 17.1 4 9 1.6 31.9 1.2 40.3 -0.7z"/>
  <path d="M289.2 515.7 c-6.2 -6.6 -17.2 -47.8 -17.6 -65.8 l-0.1 -6.7 -4 -0.5 c-3.8 -0.6 -6.9 -2.9 -9.3 -7.4 -1.1 -1.8 0.9 -2.1 -31.2 4.8 -6.3 1.4 -11.6 1.8 -20.7 1.5 -11.5 -0.3 -12.6 -0.5 -17 -3.2 -2.6 -1.6 -6.1 -4.9 -7.7 -7.2 -2.7 -3.7 -3.1 -5.3 -3.4 -12.6 -0.3 -7 0 -8.9 1.8 -12.4 4.1 -7.9 11.3 -12.3 20.7 -12.8 3.5 -0.2 6.7 -0.5 7.1 -0.8 1.5 -0.9 17.2 1.3 29.7 4.2 18.9 4.5 20.5 4.7 20.5 3 0 -0.8 1.5 -2.9 3.4 -4.7 2.9 -2.8 4 -3.3 7 -2.9 3.3 0.4 3.6 0.2 4.1 -2.7 0.3 -1.6 1 -5.9 1.5 -9.5 4.6 -27.8 18.5 -63.1 34.3 -87 6 -9 6.8 -10.1 13.3 -18.5 l6.2 -8.1 -2.8 -3.8 c-2.3 -3 -2.9 -4.8 -2.8 -8.7 0 -4 -0.6 -5.6 -2.9 -8.3 -1.5 -1.9 -3.2 -3.5 -3.6 -3.5 -1.5 -0.2 -24.9 -17.5 -25.4 -18.8 -0.3 -0.7 -1.1 -1.3 -1.8 -1.3 -2 0 -13.2 -12.7 -15.7 -17.9 -3.2 -6.6 -3.2 -16 0.2 -22.5 4.6 -9.1 12.8 -13.3 23.8 -12.3 6.2 0.5 13.9 3.8 14.9 6.2 0.3 0.8 1.1 1.5 1.8 1.5 0.6 0 3 2.1 5.2 4.7 3.7 4.5 13.5 18.6 14.4 20.8 0.2 0.6 3 4.9 6.2 9.7 3.1 4.8 5.7 9.2 5.7 9.7 0 1.3 3.1 2.4 5.8 2.2 3.4 -0.4 9.4 1.9 12.4 4.6 l2.6 2.5 7.9 -5.5 c4.3 -3 10.3 -6.9 13.3 -8.6 8.8 -5 27.7 -14.1 29.4 -14.1 0.8 0 1.7 -0.4 2.1 -0.9 0.3 -0.5 2.9 -1.7 5.8 -2.6 2.8 -0.9 6.6 -2.3 8.2 -3 5 -2.2 34.4 -9.2 44.3 -10.5 9 -1.3 9.2 -1.3 9.2 -4 0 -3.5 2.6 -8.9 5.5 -11.5 l2.2 -2 -2.9 -16.5 c-2.1 -11.7 -3 -20.7 -3.3 -31 -0.5 -18.6 0.7 -23.3 7.4 -30 5.4 -5.4 7.4 -6 18.6 -5.7 9.3 0.3 13.9 2.5 18.5 8.9 4.3 5.8 5.3 11.9 4.7 27.6 -0.5 12.6 -4.4 38.1 -6.5 42.2 -1.1 2.1 -0.3 6 1.2 6 2.5 0 4.7 3.9 5.3 9.3 l0.6 5.5 8.1 1.2 c21 2.9 47.1 10.4 67.6 19.2 13.7 5.8 23 10.8 36.3 19.5 l9.9 6.4 4 -3.6 c3.4 -3.2 4.5 -3.6 8.3 -3.4 2.5 0.2 5 -0.3 5.9 -1 0.9 -0.7 6.4 -9 12.3 -18.3 11.9 -18.8 21.8 -30.4 28.9 -33.8 3.7 -1.8 5.8 -2.1 12.4 -1.9 6.8 0.4 8.4 0.8 12.1 3.4 2.4 1.7 5.7 5.3 7.4 8 2.7 4.3 3 5.7 3 12.4 0 6 -0.5 8.5 -2.4 12.1 -3.5 6.6 -15.9 18.4 -29.3 27.9 -6.4 4.6 -13.5 9.9 -15.7 11.8 -3.8 3.2 -4.1 3.8 -4.1 8.8 0 4.3 -0.5 6 -2.5 8.3 l-2.6 3.1 7.6 9.3 c4.1 5.1 7.5 10.2 7.5 11.4 0 4.2 -1.1 4.4 -29 4.4 l-26.6 0 -3 -3.1 c-5.1 -5.5 -20.6 -18.1 -28.9 -23.5 -26 -16.9 -57.9 -28.5 -89.8 -32.4 -9.2 -1.1 -37.1 -1.6 -39.7 -0.7 -0.8 0.3 -4.2 0.8 -7.5 1.2 -17.8 1.8 -47.2 10.4 -64.5 18.8 -6.8 3.3 -24.4 14.7 -31.8 20.6 -4.6 3.6 -9.1 7.1 -10 7.6 -2.7 1.6 -15.3 14.9 -20 20.9 -6 7.8 -18.2 25.6 -18.2 26.5 0 0.5 -0.8 1.9 -1.8 3.2 -2.7 3.6 -12 25.1 -15.7 36.4 -3.7 11.3 -8.5 31.7 -8.5 36.2 0 1.6 -0.3 3.3 -0.7 3.6 -0.7 0.8 -1.4 8.5 -1.6 19.7 -0.3 17.1 6.4 51.6 12.9 65.8 2.6 5.6 2.8 9.5 0.7 11.8 -1 1.1 -5.8 3.5 -10.8 5.4 -4.9 1.8 -12 4.8 -15.7 6.6 -8 4 -9.7 4.2 -12.6 1.1z m9.6 -9.7 c0.9 0 3.1 -0.9 4.7 -2 1.7 -1.1 4 -2 5.3 -2 1.2 0 2.2 -0.4 2.2 -1 0 -0.5 0.9 -1 1.9 -1 1.1 0 3.3 -0.8 5 -1.7 3.1 -1.8 4 -3.3 2.1 -3.3 -0.5 0 -1 -1.1 -1 -2.4 0 -1.4 -0.4 -2.8 -1 -3.1 -0.5 -0.3 -1 -1.7 -1 -3 0 -1.3 -0.4 -2.6 -0.9 -2.9 -0.4 -0.3 -1.1 -2.8 -1.5 -5.6 -0.4 -2.7 -1.1 -5 -1.6 -5 -0.4 0 -1.2 -3 -1.5 -6.7 -0.4 -3.8 -1.1 -7.2 -1.5 -7.8 -1.5 -1.8 -3.3 -32.7 -2.6 -44 1.1 -17.7 6.4 -46.4 8.8 -47.3 0.4 -0.2 0.8 -1.3 0.8 -2.5 0 -2.9 4.2 -15.7 5.2 -15.7 0.4 0 0.8 -0.9 0.8 -2 0 -2.2 3.1 -9.3 4.3 -9.8 0.4 -0.2 0.7 -1.2 0.7 -2.1 0 -1 0.9 -2.8 2 -4.1 1.1 -1.3 2 -2.9 2 -3.6 0 -0.7 0.6 -1.9 1.4 -2.7 0.8 -0.7 2.7 -3.8 4.2 -6.8 1.6 -3 3.2 -5.5 3.6 -5.7 0.4 -0.2 0.8 -0.9 0.8 -1.6 0 -0.7 1.1 -2.5 2.5 -4 1.4 -1.5 2.5 -3.1 2.5 -3.5 0 -0.5 0.7 -1.1 1.5 -1.5 0.8 -0.3 1.5 -1.1 1.5 -1.8 0 -0.7 0.9 -1.9 2 -2.6 1.1 -0.7 2 -1.6 2 -2 0 -2.6 30.9 -33.2 33.5 -33.2 0.7 0 1.5 -0.7 1.9 -1.5 0.3 -0.8 1.2 -1.5 2.1 -1.5 0.8 0 1.5 -0.4 1.5 -1 0 -0.5 0.6 -1 1.4 -1 0.8 0 1.6 -0.7 2 -1.5 0.3 -0.8 1.5 -1.5 2.6 -1.5 1.1 0 2 -0.4 2 -1 0 -0.5 0.7 -1 1.5 -1 0.8 0 1.5 -0.4 1.5 -1 0 -0.5 0.7 -1 1.5 -1 0.8 0 1.5 -0.4 1.5 -0.9 0 -0.5 2 -1.7 4.5 -2.7 2.5 -0.9 4.5 -2 4.5 -2.3 0 -0.4 2 -1.3 4.5 -2 2.5 -0.7 4.5 -1.7 4.5 -2.1 0 -1.9 31 -12 36.9 -12 1.7 0 3.1 -0.4 3.1 -0.8 0 -1.8 22.8 -4.5 41 -4.9 17.7 -0.3 42.9 1.2 44 2.6 0.6 0.8 11.7 3.1 15.3 3.1 1.5 0 2.7 0.5 2.7 1 0 0.6 1.5 1 3.3 1 1.8 0 3.7 0.4 4.3 0.9 0.5 0.5 3.4 1.6 6.4 2.6 7.6 2.5 31.2 12.6 32.8 14.1 0.7 0.7 2.8 1.8 4.7 2.5 1.9 0.7 3.5 1.6 3.5 2 0 0.4 0.9 1.1 2.1 1.4 1.2 0.4 2.9 1.3 3.8 2 0.9 0.8 5.3 4.1 9.7 7.4 4.5 3.4 11.6 9.2 15.7 13.1 l7.5 7 19.1 0 c21.9 0 21 0.7 12.2 -9.2 -6.1 -6.7 -6.7 -10.5 -2.4 -15 2.1 -2.2 2.8 -4 3.1 -8.8 0.4 -5.8 0.7 -6.2 5.6 -10.8 2.9 -2.6 10.6 -8.5 17.2 -13.1 19.4 -13.8 29.4 -25.1 29.4 -33.2 0 -4 -4 -11 -7.7 -13.4 -4.2 -2.8 -10.2 -3.6 -14.2 -1.9 -5.8 2.4 -16 14.1 -25.6 29.4 -4.9 7.8 -9.2 14.8 -9.4 15.4 -0.2 0.6 -2.5 3.3 -5 6 -4.4 4.6 -4.8 4.8 -9.1 4.3 -4.2 -0.5 -4.8 -0.3 -8.5 3.4 -5.3 5.3 -8.7 5.2 -15.7 -0.1 -2.9 -2.2 -6.3 -4.3 -7.5 -4.6 -1.3 -0.4 -2.3 -1 -2.3 -1.5 0 -0.5 -0.7 -0.9 -1.5 -0.9 -0.8 0 -1.5 -0.4 -1.5 -0.9 0 -0.5 -2.6 -2.1 -5.7 -3.7 -3.2 -1.6 -6 -3.2 -6.3 -3.5 -1 -1.3 -10.7 -5.7 -17.2 -8 -3.8 -1.2 -6.8 -2.6 -6.8 -3 0 -0.4 -1.5 -1.1 -3.2 -1.4 -1.8 -0.4 -3.7 -1.1 -4.3 -1.5 -0.5 -0.4 -2.5 -1 -4.3 -1.4 -1.9 -0.3 -4.8 -1.2 -6.5 -2 -1.8 -0.8 -5.8 -2 -8.9 -2.6 -3.2 -0.6 -6 -1.6 -6.3 -2.1 -0.4 -0.5 -2.1 -0.9 -4 -0.9 -1.9 0 -3.7 -0.4 -4 -1 -0.3 -0.5 -2.3 -1 -4.3 -1 -5.8 -0.1 -25.2 -3.6 -26.4 -4.8 -0.6 -0.6 -0.8 -2.9 -0.6 -5.2 0.3 -3.7 0 -4.7 -2.9 -7.6 -4.3 -4.5 -5.2 -11.7 -2.8 -24 1 -4.9 2.1 -9.3 2.6 -9.9 0.5 -0.5 0.9 -2.5 0.9 -4.5 0 -2 0.5 -6.3 1.1 -9.6 1.9 -10.2 1.5 -18.2 -1.1 -25.8 -1.4 -3.7 -3.1 -7.1 -4 -7.4 -0.8 -0.3 -1.9 -1.2 -2.5 -1.9 -0.5 -0.7 -3.7 -1.6 -7 -1.9 -5.2 -0.5 -6.5 -0.3 -9.5 1.8 -5.2 3.5 -8.3 10.5 -9 20.8 -0.4 4.7 -0.3 9 0 9.5 0.4 0.6 1 4 1.4 7.7 0.3 3.6 1.5 10.8 2.6 15.9 1.1 5.2 2 13.1 2 18 0 8.3 -0.1 8.7 -2.4 9.3 -2.6 0.6 -4.6 4.9 -4.6 9.9 0 3.8 -2.5 6.7 -5.9 6.7 -7.8 0.1 -32.8 5.7 -50.5 11.5 -5.9 1.9 -11.5 3.5 -12.2 3.5 -0.8 0 -1.4 0.4 -1.4 0.9 0 1 -7.8 4.1 -10.3 4.1 -0.9 0 -1.7 0.4 -1.7 0.8 0 0.4 -3.7 2.6 -8.2 4.7 -4.6 2.2 -8.9 4.6 -9.6 5.2 -0.7 0.7 -2.4 1.6 -3.8 1.9 -1.3 0.3 -2.4 1 -2.4 1.5 0 0.5 -0.6 0.9 -1.4 0.9 -0.8 0 -1.6 0.4 -1.8 0.8 -0.4 1 -9.4 7.2 -10.4 7.2 -0.4 0 -1.2 0.7 -1.8 1.5 -2.3 3.1 -13.6 3.1 -13.6 0 0 -1.8 -5.3 -4.2 -11.2 -4.9 -4.4 -0.5 -9.8 -3.7 -9.8 -5.8 0 -0.4 -0.9 -1.7 -2 -2.8 -1.1 -1.1 -2 -2.7 -2 -3.5 0 -0.8 -0.4 -1.5 -1 -1.5 -0.5 0 -1 -0.6 -1 -1.4 0 -0.8 -0.4 -1.6 -0.8 -1.8 -0.9 -0.3 -11.2 -16.1 -11.2 -17.1 0 -0.3 -1.1 -1.8 -2.5 -3.3 -1.4 -1.5 -2.5 -3.3 -2.5 -4 0 -0.7 -0.9 -1.8 -2 -2.4 -1.1 -0.6 -2 -1.7 -2 -2.6 0 -0.8 -1 -1.9 -2.2 -2.4 -1.3 -0.5 -3.6 -2 -5.2 -3.4 -3.8 -3.4 -11 -4.5 -14.5 -2.2 -1.4 1 -3.3 2 -4.1 2.2 -2 0.7 -6 8.7 -6 12 0 3.4 4.6 13.3 6.6 14.1 0.7 0.3 1.4 0.9 1.4 1.4 0 1.4 3.3 4.9 4.6 4.9 0.7 0 2.3 1.3 3.6 2.8 1.3 1.5 3.1 3.1 4.1 3.5 0.9 0.3 1.7 1.1 1.7 1.7 0 0.5 0.7 1 1.5 1 0.8 0 1.5 0.5 1.5 1 0 0.6 0.5 1 1.2 1 1.9 0 13 8.7 18.9 14.8 1.8 1.7 3.8 3.2 4.6 3.2 0.9 0 1.3 1.6 1.3 5.8 0 5.7 0.9 8 5.2 12.6 1.1 1.3 1.8 3.5 1.8 6.2 0 3.3 -0.5 4.5 -2.5 5.8 -1.4 0.9 -2.5 2.3 -2.5 3 0 0.8 -0.7 1.6 -1.5 2 -0.8 0.3 -1.5 1.2 -1.5 2 0 0.9 -0.9 2 -2 2.6 -1.1 0.6 -2 1.7 -2 2.5 0 0.8 -0.4 1.5 -1 1.5 -0.5 0 -1 0.6 -1 1.4 0 0.8 -0.7 1.6 -1.5 2 -0.8 0.3 -1.5 1.2 -1.5 2.1 0 0.8 -0.4 1.5 -1 1.5 -0.5 0 -1 0.7 -1 1.5 0 0.8 -0.4 1.5 -1 1.5 -0.5 0 -1 0.7 -1 1.5 0 0.8 -0.4 1.5 -1 1.5 -0.5 0 -1.2 1.1 -1.6 2.5 -0.3 1.4 -1 2.5 -1.4 2.5 -0.4 0 -1.1 1.1 -1.4 2.5 -0.4 1.4 -1.1 2.5 -1.6 2.5 -0.6 0 -1 0.6 -1 1.4 0 0.8 -0.6 2.1 -1.2 2.8 -0.7 0.7 -1.8 2.7 -2.4 4.3 -2.5 6.4 -7.9 18 -8.6 18.3 -0.5 0.2 -0.8 1 -0.8 1.8 0 0.8 -0.4 2.2 -0.9 3.2 -2.6 5.1 -10.9 35.4 -12.5 45.7 -0.4 2.2 -1.2 5.9 -1.8 8.2 -1.1 3.8 -1.6 4.4 -4.8 4.9 -1.9 0.3 -4.4 0.7 -5.5 0.9 -1.1 0.2 -2.8 2 -3.9 3.9 -1.7 3.2 -2.2 3.4 -8.3 4.1 -4.3 0.4 -6.9 0.3 -7.6 -0.4 -0.6 -0.6 -3 -1.1 -5.3 -1.1 -2.4 0 -4.6 -0.4 -4.9 -1 -0.3 -0.5 -2.4 -1 -4.6 -1 -2.1 0 -3.9 -0.4 -3.9 -1 0 -0.5 -1.8 -1 -3.9 -1 -2.2 0 -5.2 -0.5 -6.7 -1.1 -1.6 -0.5 -6.2 -1 -10.4 -1.1 -8.7 -0.1 -18.7 3.4 -20.6 7.2 -0.7 1.2 -1.7 2.7 -2.3 3.3 -1.6 1.6 -1.4 7.5 0.5 12.4 1.5 3.8 2.5 4.8 7.8 7.3 5.3 2.6 7.1 3 14.9 3 9 0 15.8 -1.1 21.3 -3.6 1.7 -0.7 5.7 -1.6 9 -2 3.2 -0.3 6.9 -1 8.1 -1.6 1.5 -0.7 4.6 -0.8 9.4 -0.2 7.1 0.9 7.3 1 8.4 4.4 1 2.9 1.8 3.6 5.1 4.3 6.8 1.5 6.8 1.5 8 13.3 1.1 10.2 5.4 31.8 7.5 37.1 0.5 1.3 0.9 3.8 0.9 5.4 0 1.6 0.4 2.9 0.8 2.9 0.5 0 1.9 3.3 3.3 7.3 2 6.1 2.6 7.1 3.7 6 0.7 -0.7 2.1 -1.3 3 -1.3z"/>
  <path d="M344.5 471 c-1.8 -2 -1.7 -3 2.5 -34.3 2.4 -17.7 4.8 -32.7 5.3 -33.4 1.1 -1.5 9.1 -6 25.7 -14.4 8.7 -4.5 11.8 -6.5 10.3 -6.7 -4.5 -0.6 -4.5 -1.8 -1.2 -25.3 1.8 -12.3 3.7 -22.9 4.3 -23.5 0.6 -0.7 10.9 -6.4 22.8 -12.8 l21.7 -11.6 30.4 0 c35.2 0 33.7 -0.4 33.7 9.3 l0 5.6 4.3 0.5 c2.3 0.3 13.3 1 24.5 1.6 11.2 0.5 21.1 1.4 22 1.9 4.3 2.3 10.2 13.1 10.2 18.6 0 5.1 0.4 5.1 -52.1 1.6 -36 -2.5 -49.4 -3 -50.2 -2.2 -0.8 0.8 0.7 1.1 5.9 1.1 3.8 0 24.7 1.3 46.4 2.9 21.7 1.6 49.4 3.5 61.5 4.2 25.7 1.4 23 -0.1 31.1 16.1 5.4 10.7 6.5 15.7 4.2 17.5 -0.7 0.6 -9.1 2.5 -18.6 4.3 -20.1 3.7 -20.2 3.7 -20.2 -4.6 l0 -5.4 -3.4 0 c-1.9 0 -4.1 -0.3 -5 -0.6 -1.4 -0.5 -1.6 0.5 -1.6 7.4 0 5.1 -0.4 8.3 -1.2 9 -0.7 0.5 -7.5 2.6 -15 4.6 -25.6 6.8 -62.2 19.5 -107.8 37.6 -15.1 6 -32.9 12.9 -39.5 15.3 -6.6 2.5 -19.5 7.5 -28.7 11.1 -9.2 3.6 -17.6 6.6 -18.6 6.6 -1.1 0 -2.7 -0.9 -3.7 -2z m21.2 -13.1 c7.1 -2.8 18.2 -7.1 24.8 -9.6 6.6 -2.4 25.5 -9.7 42 -16.2 16.5 -6.5 35.3 -13.7 41.8 -16.1 10.5 -3.8 11.7 -4.5 11.7 -6.6 0 -2 0.5 -2.4 3.3 -2.4 1.8 0 3.7 0.4 4.2 0.9 0.6 0.5 6.2 -0.9 13.9 -3.4 7 -2.3 12.3 -4.5 11.7 -4.9 -0.7 -0.5 -1.1 -5.2 -1.1 -13.7 l0 -13 12.3 0.3 12.2 0.3 0.3 10.3 c0.2 9.2 0.5 10.3 2 9.8 0.9 -0.3 2.9 -0.8 4.5 -1.2 2.7 -0.6 2.7 -0.6 2.7 -9.5 l0 -8.9 4.3 0 c2.4 0 7.8 0.3 12 0.6 l7.7 0.7 0 5.3 c0 3.7 0.4 5.4 1.3 5.4 0.6 0 5.9 -0.9 11.7 -2 5.8 -1.1 10.6 -2 10.8 -2 0.2 0 -2 -4.4 -4.7 -9.8 l-5.1 -9.8 -21.2 -1.2 c-11.7 -0.7 -40.2 -2.6 -63.3 -4.3 l-42 -3.1 -8.5 4.8 c-11.1 6.1 -24 12.8 -55 28.6 -14 7.2 -29.1 14.9 -33.5 17.3 l-8 4.3 -3.3 24.9 c-1.9 13.6 -3.6 25.8 -3.9 27.1 -0.3 1.2 0 2.2 0.6 2.2 0.6 0 6.8 -2.3 13.8 -5.1z m170.3 -71.4 l0 -6.5 -5.5 0 -5.5 0 0 6.5 0 6.5 5.5 0 5.5 0 0 -6.5z m-126 -14 c0 -0.3 -1.8 0.4 -4 1.5 -2.2 1.1 -4 2.3 -4 2.5 0 0.3 1.8 -0.4 4 -1.5 2.2 -1.1 4 -2.3 4 -2.5z m38.3 -19.9 c4.8 -2.7 8.7 -5 8.7 -5.2 0 -0.2 -4.6 1.9 -10.2 4.7 -12.5 6.2 -35.8 18.9 -35.8 19.5 0 0.5 22 -10.8 37.3 -19z m-37.6 9.1 c9.3 -5.2 23.2 -12.6 30.9 -16.5 13.4 -6.8 14.5 -7.2 20.9 -7.2 5.8 0 72.8 4.2 85.1 5.3 l4.2 0.4 -1.3 -3.1 c-2.5 -6 -4.1 -6.5 -25.5 -7.6 -10.7 -0.6 -22.3 -1.3 -25.7 -1.6 l-6.2 -0.6 -0.3 -7.1 -0.3 -7.2 -25.8 -0.3 -25.7 -0.2 -21.8 11.7 -21.9 11.7 -1.7 13 c-1 7.2 -2 14.3 -2.3 15.9 -0.3 1.5 -0.3 2.7 0.1 2.7 0.3 0 8.1 -4.2 17.3 -9.3z"/>
  <path d="M365 434.3 l0 -8.8 4.3 -1.7 c2.3 -1 5.7 -1.8 7.5 -1.8 l3.2 0 0 8.8 0 8.7 -4.3 1.8 c-2.3 0.9 -5.7 1.7 -7.5 1.7 l-3.2 0 0 -8.7z"/>
  <path d="M384.6 429.8 c-1.4 -12.1 -1.4 -12.1 6.2 -15.7 3.8 -1.7 8.3 -3.1 10 -3.1 l3.2 0 0 9.4 0 9.4 -6.5 2.6 c-3.6 1.4 -7.8 2.6 -9.4 2.6 -2.7 0 -2.9 -0.3 -3.5 -5.2z m10.8 -5.4 c1.5 -0.6 2.3 -3.4 1 -3.4 -1.3 0 -4.4 2.1 -4.4 3 0 1.1 1.1 1.3 3.4 0.4z"/>
  <path d="M410 415.2 l0 -9.8 7.5 -3.2 c4.1 -1.8 8.8 -3.2 10.5 -3.2 2.9 0 3 0.1 3 4.8 0 2.6 0.3 7 0.6 9.8 l0.6 5.1 -7.9 3.1 c-4.4 1.8 -9.4 3.2 -11.1 3.2 l-3.2 0 0 -9.8z m11.4 -1.2 c1.7 -0.6 2.6 -1.7 2.6 -3.1 0 -1.6 -0.4 -1.9 -1.7 -1.4 -1 0.4 -2.6 1 -3.5 1.2 -1 0.3 -1.8 1.4 -1.8 2.4 0 2.2 0.8 2.3 4.4 0.9z"/>
  <path d="M437 403.1 l0 -9.8 8 -3.7 c4.3 -2 9.5 -3.6 11.5 -3.6 l3.5 0 0 10.9 0 10.8 -7.2 2.7 c-4 1.4 -9.2 2.6 -11.5 2.6 l-4.3 0 0 -9.9z m16 -4.8 l0 -3.3 -4.5 2.2 c-3.7 1.8 -4.5 2.7 -4.5 4.9 l0 2.7 4.5 -1.7 c4.1 -1.4 4.5 -1.9 4.5 -4.8z"/>
  <path d="M491.8 398.3 l-7.8 -0.4 0 -13 0 -13 12.3 0.3 12.2 0.3 0 13 0 13 -4.5 0.1 c-2.5 0 -8 -0.1 -12.2 -0.3z m10.2 -13.3 l0 -6 -5.5 0 -5.5 0 0 6 0 6 5.5 0 5.5 0 0 -6z"/>
  <path d="M791.2 395.8 c-1.4 -1.8 -2.2 -34.4 -0.9 -35.7 1.6 -1.6 33.9 -1.5 35.5 0.1 0.8 0.8 1.2 6.2 1.2 17.8 0 11.6 -0.4 17 -1.2 17.8 -1.7 1.7 -33.2 1.7 -34.6 0z m28.8 -11.3 c0 -3 -0.4 -5.5 -1 -5.5 -0.5 0 -1 -1.6 -1 -3.5 0 -1.9 0.5 -3.5 1 -3.5 1.5 0 1.2 -2.9 -0.4 -4.6 -1.1 -1 -4.1 -1.4 -11.5 -1.4 l-10.1 0 0 5.5 c0 3 0.5 5.5 1 5.5 1.5 0 1.2 7 -0.2 7.1 -1 0 -1 0.2 0 0.6 0.6 0.2 1.2 1.6 1.2 2.9 0 2.4 0.1 2.4 10.5 2.4 l10.5 0 0 -5.5z"/>
  <path d="M714 392.6 c-1.5 -1.5 -1.3 -27.9 0.2 -29.4 1.7 -1.7 25.9 -1.7 27.6 0 1.7 1.7 1.7 27.2 0 28.6 -1.8 1.4 -26.4 2.2 -27.8 0.8z m22 -15.1 l0 -8.5 -8 0 -8 0 0 7.8 c0 4.3 0.3 8.2 0.7 8.5 0.3 0.4 3.9 0.7 8 0.7 l7.3 0 0 -8.5z"/>
  <path d="M664.2 383.8 c-1.7 -1.7 -1.7 -23.9 0 -25.6 1.7 -1.7 23.9 -1.7 25.6 0 0.8 0.8 1.2 5.1 1.2 12.8 0 7.7 -0.4 12 -1.2 12.8 -0.8 0.8 -5.1 1.2 -12.8 1.2 -7.7 0 -12 -0.4 -12.8 -1.2z m19.8 -12.8 l0 -7 -7 0 -7 0 0 7 0 7 7 0 7 0 0 -7z"/>
  <path d="M747.7 358.2 c-1.4 -1.5 -1.7 -4 -1.7 -12.8 0 -7.2 0.4 -11.4 1.2 -12.2 0.8 -0.8 5 -1.2 12.3 -1.2 14.6 0 14.5 -0.1 14.5 14.6 0 7.2 -0.4 11.4 -1.2 12.2 -0.8 0.8 -5 1.2 -12.3 1.2 -9.6 0 -11.4 -0.3 -12.8 -1.8z m19.3 -12.2 l0 -7 -7 0 -7 0 0 6.3 c0 3.5 0.3 6.7 0.7 7 0.3 0.4 3.5 0.7 7 0.7 l6.3 0 0 -7z"/>
  <path d="M684.2 343.8 c-1.2 -1.6 -2 -35.8 -0.9 -37.5 0.6 -1 5.5 -1.3 18.6 -1.3 13.1 0 18.1 0.3 18.9 1.3 1.2 1.4 2 35.6 0.9 37.5 -0.6 0.9 -5.5 1.2 -18.6 1.2 -13.1 0 -18.1 -0.3 -18.9 -1.2z m30.8 -18.8 l0 -13 -12.5 0 -12.5 0 0 13 0 13 12.5 0 12.5 0 0 -13z"/>
  <path d="M627.2 336.8 c-0.8 -0.8 -1.2 -5.6 -1.2 -14.8 0 -17.7 -0.7 -17 16.6 -17 8.8 0 13.4 0.4 14.2 1.2 1.7 1.7 1.7 28.9 0 30.6 -1.7 1.7 -27.9 1.7 -29.6 0z m23.8 -15.3 l0 -9.6 -8.7 0.3 -8.8 0.3 -0.3 9.3 -0.3 9.2 9.1 0 9 0 0 -9.5z"/>
  <path d="M784.2 322.8 c-0.8 -0.8 -1.2 -4.8 -1.2 -11.3 0 -6.5 0.4 -10.5 1.2 -11.3 1.6 -1.6 21 -1.6 22.6 0 0.8 0.8 1.2 4.8 1.2 11.3 0 6.5 -0.4 10.5 -1.2 11.3 -0.8 0.8 -4.8 1.2 -11.3 1.2 -6.5 0 -10.5 -0.4 -11.3 -1.2z m16.8 -10.8 c0 -4.6 -0.2 -5 -2.4 -5 -1.3 0 -3.8 -0.3 -5.5 -0.6 l-3.1 -0.6 0 5.6 0 5.6 5.5 0 5.5 0 0 -5z"/>
  <path d="M447.1 305.6 c-0.9 -1 -1.1 -7 -0.9 -21.1 l0.3 -19.6 4.2 -4 c4.2 -3.9 4.3 -3.9 12.4 -3.9 l8.2 0 4.3 4.4 4.4 4.3 0 19.5 c0 13.7 -0.3 19.7 -1.2 20.6 -1.9 1.9 -30.2 1.7 -31.7 -0.2z m25.9 -20.2 l0 -14.6 -3.4 -3.4 c-4.4 -4.4 -8.3 -4.5 -12.8 -0.5 l-3.3 2.9 -0.3 12.7 c-0.5 18.5 -1.1 17.5 10.3 17.5 l9.5 0 0 -14.6z"/>
  <path d="M734 303.6 c-1.5 -1.5 -1.3 -29.9 0.2 -31.4 1.7 -1.7 30.9 -1.7 32.6 0 1.7 1.7 1.7 29.2 0 30.6 -1.8 1.3 -31.5 2.1 -32.8 0.8z m27 -16.1 l0 -9.5 -10.5 0 -10.5 0 0 9.5 0 9.5 10.5 0 10.5 0 0 -9.5z"/>
  <path d="M594.7 287.2 c-2.6 -2.8 -2.4 -19.2 0.1 -21.5 2.8 -2.6 18.2 -2.4 20.5 0.1 2.6 2.8 2.4 19.2 -0.1 21.5 -2.8 2.6 -18.2 2.4 -20.5 -0.1z m15.3 -10.8 l0 -5.5 -4.7 0.3 c-4.8 0.3 -4.8 0.3 -5.1 4.2 -0.5 5.8 0.1 6.6 5.3 6.6 l4.5 0 0 -5.6z"/>
 </g>
 <g fill="#22a1d4">
  <path d="M585.4 667.3 c0.3 -2.7 0.9 -7.8 1.2 -11.5 l0.7 -6.8 3.3 0 c2.7 0 3.4 0.4 3.4 2 0 1.3 0.7 2 2 2 1.6 0 2 0.7 2 3.5 0 2.4 -0.5 3.5 -1.5 3.5 -0.8 0 -1.5 0.5 -1.5 1 0 1.4 4.8 1.2 6.4 -0.2 0.8 -0.8 1.1 -2.9 0.8 -6 l-0.5 -4.8 4.2 0 c2.2 0 4.1 -0.4 4.1 -1 0 -0.5 -1.4 -1 -3.1 -1 l-3.1 0 0.4 -5.4 c0.4 -4.4 0.1 -5.7 -1.4 -6.7 -2.3 -1.7 -2.3 -4.8 0 -5.6 0.9 -0.3 6.4 -2.5 12.1 -4.9 28 -11.8 56.3 -32.4 77.2 -56.1 28.2 -31.9 48.2 -72.9 54.8 -112.5 1.7 -9.8 3.8 -36.9 4.1 -51 0 -1.6 1.2 -1.8 11.9 -1.8 6.5 0 13.2 0.3 14.9 0.6 3 0.6 3 0.8 3.4 7.3 0.7 11.3 -1.1 37.6 -3.7 52.4 -6.2 36.5 -18 66.9 -37.2 96.2 -13.8 21 -21.2 30.2 -36.4 45 -22.3 21.7 -35.4 31.5 -60.7 45.4 -14.7 8 -33.7 16.1 -38.1 16.1 -1.6 0 -3.1 0.4 -3.3 1 -0.4 1.1 -10.7 4 -14.5 4 -2.5 0 -2.5 -0.1 -1.9 -4.7z"/>
  <path d="M578 653.5 c0 -0.8 -0.7 -1.5 -1.5 -1.5 -1 0 -1.5 -1 -1.5 -2.7 0 -4.8 1.1 -7.3 3.1 -7.3 1.1 0 1.9 -0.4 1.9 -1 0 -0.5 1.6 -1 3.5 -1 3.3 0 3.5 0.2 3.5 3.5 0 2.9 -0.4 3.5 -2.2 3.6 -1.3 0 -1.7 0.3 -1 0.6 0.6 0.2 1.2 2 1.2 3.9 0 3.2 -0.2 3.4 -3.5 3.4 -2.4 0 -3.5 -0.5 -3.5 -1.5z"/>
  <path d="M559 643.5 c0 -2.5 0.2 -2.6 7.3 -4 1.3 -0.2 1.7 0.4 1.7 2.5 0 3 -1.5 4 -6.1 4 -2.4 0 -2.9 -0.4 -2.9 -2.5z"/>
  <path d="M591.2 640.3 c0.3 -3.8 0.3 -3.8 5.1 -4.1 l4.8 -0.3 -0.3 3.8 c-0.3 3.8 -0.3 3.8 -5.1 4.1 l-4.8 0.3 0.3 -3.8z"/>
  <path d="M523 633.1 c0 -2.7 0.4 -3 4.3 -3.6 2.3 -0.4 6.5 -0.5 9.2 -0.3 4.8 0.3 5 0.4 5.3 3.6 l0.3 3.2 -9.5 0 -9.6 0 0 -2.9z"/>
  <path d="M545 631.8 l0 -3.5 7.3 -0.9 c3.9 -0.4 6.2 -0.9 5 -1.1 -1.7 -0.3 -2.3 -1.1 -2.3 -3.1 l0 -2.7 15.3 -0.1 c14.2 0 30.9 -2 37.5 -4.5 1.9 -0.7 2.2 -0.5 2.2 1.6 0 2.9 -0.7 3.3 -13.8 7.9 -12.1 4.2 -31.4 8.4 -42.9 9.3 l-8.3 0.6 0 -3.5z"/>
  <path d="M541 621.9 c0 -3 0.2 -3.1 3.1 -2.5 1.7 0.3 4.2 0.6 5.5 0.6 1.9 0 2.4 0.5 2.4 2.5 0 2.4 -0.3 2.5 -5.5 2.5 -5.5 0 -5.5 0 -5.5 -3.1z"/>
  <path d="M545.6 599.4 c-13.4 -1.8 -13 -1.6 -12.3 -6.9 0.6 -4 0.5 -4.5 -1.3 -4.5 -1.7 0 -2 -0.7 -2 -4 0 -3.3 0.3 -4 2 -4 1.1 0 2 -0.4 2 -1 0 -0.5 -0.7 -1 -1.5 -1 -1 0 -1.5 -1.1 -1.5 -3.5 0 -3.3 0.2 -3.5 3.5 -3.5 1.9 0 3.5 0.5 3.5 1 0 0.6 0.9 1 2 1 1.6 0 2 -0.7 2 -3.5 0 -2.4 -0.5 -3.5 -1.5 -3.5 -1.1 0 -1.5 -1.2 -1.5 -5.1 0 -4.8 0.1 -5 2.3 -4.4 1.2 0.4 7 2.3 12.9 4.2 14.7 4.7 25.1 6.3 39.9 6.3 24.6 0 46.7 -5.9 67 -18 8.3 -4.9 20.7 -16.2 21.5 -19.7 1.1 -4.4 -0.3 -4.7 -16.4 -3.3 -15.1 1.3 -24.6 0.8 -24 -1.2 0.3 -0.7 3.5 -1.8 7.4 -2.6 24.9 -5 51.1 -25.9 63.8 -51 4.7 -9.3 8.4 -22.2 9.5 -33.1 0.6 -5.7 1.1 -10.7 1.1 -11.2 0 -0.5 0.6 -0.9 1.4 -0.9 1.8 0 3.3 7.7 4.8 24.6 2.7 30 -4.1 56.4 -21.3 82.1 -11.2 16.8 -39.4 41.5 -58.4 51.1 -26.3 13.2 -72.4 20.1 -104.9 15.6z"/>
  <path d="M583 550.6 c-8.4 -1.5 -12.8 -2.6 -24.7 -6.2 -7.9 -2.3 -8.3 -2.6 -8.3 -5.3 0 -1.6 0.6 -3.2 1.3 -3.4 0.6 -0.3 0.2 -0.6 -1 -0.6 -1.6 -0.1 -2.3 -0.7 -2.3 -2.1 0 -1.2 -0.7 -2 -1.6 -2 -1.3 0 -1.5 -0.8 -1.2 -4 0.3 -3.7 0.2 -4 -2.1 -4 -2.3 0 -2.4 -0.2 -1.8 -5 0.5 -4.1 0.3 -5 -1 -5 -1.3 0 -1.5 -0.9 -0.9 -6.2 0.4 -3.5 1.2 -6.5 1.8 -6.7 0.6 -0.2 0.5 -0.6 -0.3 -1.1 -1 -0.7 -1 -2.4 0.1 -9.3 1.4 -9.5 0.7 -19.2 -1.6 -20.1 -0.8 -0.3 -1.4 -1.7 -1.4 -3.1 0 -2.2 -0.4 -2.5 -3.5 -2.5 -3.3 0 -3.5 -0.2 -3.5 -3.5 0 -3.3 0.2 -3.5 3.5 -3.5 3.2 0 3.5 -0.2 3.5 -3 0 -2.7 -0.3 -3 -3 -3 -2.7 0 -3 -0.3 -3 -3.4 0 -2.9 0.4 -3.4 3 -3.9 2.7 -0.6 3 -1.1 3 -4.2 0 -1.9 0.4 -3.5 0.8 -3.5 0.5 0 0.7 -1.2 0.4 -2.8 -0.3 -2.5 -0.6 -2.7 -4.7 -2.4 l-4.2 0.4 -0.8 -6.6 c-0.3 -3.6 -0.4 -7 0 -7.6 0.8 -1.4 7.2 -1.3 7.7 0.1 0.2 0.7 1.3 0.9 2.6 0.5 2.7 -0.9 2.9 -2.6 0.2 -2.6 -1.5 0 -2 -0.7 -2 -2.5 0 -2.8 -1.4 -2.3 24 -8.4 44.7 -10.8 82 -13.7 105.9 -8.1 5 1.2 9.3 2.5 9.5 2.9 0.8 1.2 -5.9 17.6 -10.3 25.2 -2.3 4.1 -9.4 13.9 -15.7 21.9 -16.2 20.3 -21.8 30.1 -27.9 48.3 -4.4 13.3 -6.2 25.6 -4.6 31.5 2 7 9.5 13.5 19.4 16.6 0.9 0.3 1.7 1.4 1.7 2.5 0 1.5 -1 2.3 -3.7 3 -2.1 0.6 -5.6 1.6 -7.8 2.2 -6.2 1.7 -36.7 2.1 -45.5 0.5z"/>
  <path d="M487 410 l0 -4 4 0 c3.9 0 4 0.1 4 3.4 0 3.6 -1.2 4.6 -5.6 4.6 -2.1 0 -2.4 -0.4 -2.4 -4z"/>
  <path d="M536 398.5 c0 -0.8 0.9 -1.5 2 -1.5 2 0 2.1 -0.5 1.8 -10.2 l-0.3 -10.3 -8.9 -0.3 c-6.5 -0.2 -9.2 0.1 -9.8 1 -0.5 0.8 -0.7 -0.4 -0.6 -3.2 l0.3 -4.5 8.3 -0.3 8.2 -0.3 0 -3.9 0 -4 -5.5 0 c-5.5 0 -5.5 0 -5.5 -3.1 0 -2.9 0.2 -3.1 2.8 -2.6 1.5 0.3 16.6 1.3 33.5 2.3 l30.8 1.8 5.9 11.7 c3.3 6.5 6 12.1 6 12.6 0 0.5 -7.2 2.2 -16 3.9 l-16 3 0 -6.3 c0 -6.3 0 -6.3 -2.9 -6.3 -1.5 0 -5.6 -0.3 -9 -0.6 l-6.1 -0.7 0 9.1 0 9 -6.9 1.6 c-3.8 0.9 -8.1 2 -9.5 2.6 -2.1 0.7 -2.6 0.6 -2.6 -0.5z"/>
  <path d="M793.9 379.8 c0 -7.3 -0.2 -14.1 -0.4 -15 -0.3 -1.7 0.9 -1.8 14.6 -1.8 l14.9 0 0 15 0 15 -14.5 0 -14.5 0 -0.1 -13.2z"/>
  <path d="M717.1 377.8 l-0.2 -11.8 11.1 0 11 0 0 11.4 0 11.5 -10.9 0.3 -10.9 0.3 -0.1 -11.7z"/>
  <path d="M667 371 l0 -10 10 0 10 0 0 10 0 10 -10 0 -10 0 0 -10z"/>
  <path d="M750.7 355.3 c-0.4 -0.3 -0.7 -4.8 -0.7 -10 l0 -9.3 10 0 10 0 0 10 0 10 -9.3 0 c-5.2 0 -9.7 -0.3 -10 -0.7z"/>
  <path d="M542.5 346.3 c-3.3 -0.1 -7.9 -0.5 -10.2 -0.9 -4 -0.5 -4.3 -0.7 -4.3 -3.5 0 -3.4 1.6 -5.5 4.6 -6.1 1.2 -0.2 2 -1.3 2.2 -3 0.3 -2.7 0.4 -2.8 6.5 -2.2 3.4 0.4 7.2 1.3 8.4 2 2.3 1.5 5 6.6 6 11.7 0.6 3 2.1 2.8 -13.2 2z"/>
  <path d="M687 326.6 c0 -7.9 -0.3 -15.1 -0.6 -16 -0.5 -1.4 1.2 -1.6 15.4 -1.6 l16.1 0 0.3 16 0.3 16 -15.7 0 -15.8 0 0 -14.4z"/>
  <path d="M630.2 321.8 l0.3 -12.3 11.8 -0.3 11.7 -0.3 0 12.6 0 12.5 -12 0 -12.1 0 0.3 -12.2z"/>
  <path d="M787 311.5 l0 -8.6 8.5 0.3 8.5 0.3 0 8.2 0 8.3 -8.5 0 -8.5 0 0 -8.5z"/>
  <path d="M737 287.8 l0 -12.8 13.5 0 13.5 0 0 12.4 0 12.5 -13.5 0.3 -13.5 0.3 0 -12.7z"/>
  <path d="M597.4 283.7 c-0.3 -0.8 -0.4 -4.5 -0.2 -8.3 l0.3 -6.9 7.8 -0.3 7.7 -0.3 0 8.6 0 8.5 -7.5 0 c-5.4 0 -7.7 -0.4 -8.1 -1.3z"/>
 </g>
 <g fill="#1d95c7">
  <path d="M503.5 767.7 c-4 -1.9 -9 -7.6 -10.6 -12.4 -2.4 -6.8 -1.7 -23 1.9 -39.8 4.3 -20.6 4.6 -26.5 1.2 -26.5 -1.5 0 -2.6 -1.3 -4 -4.4 -2.4 -5.6 -4.5 -7 -14.5 -9.1 -28 -6 -57.1 -17.5 -79.6 -31.5 -9.4 -5.8 -30.4 -20.6 -32 -22.6 -0.9 -1.1 -1.6 -0.7 -3.7 1.8 -3.2 3.8 -7.7 5.7 -12 5.1 -4.2 -0.7 -6.4 1.3 -13 11.6 -2.7 4.2 -7.9 12.2 -11.6 17.9 -12.2 18.9 -20.1 25.2 -31.6 25.2 -11 0 -17.4 -5.5 -18.7 -15.8 -1.5 -12.7 5.1 -21.9 27.7 -38.5 7.4 -5.5 15.9 -12.3 18.8 -15.1 l5.3 -5.1 -0.7 -5.1 c-0.6 -4.9 -0.4 -5.4 3.1 -9.2 l3.7 -4.1 -4.6 -6.5 c-2.6 -3.5 -5.3 -6.7 -6.2 -7 -2.3 -0.9 -33.9 -0.9 -40.7 -0.1 -3.1 0.4 -5.7 0.4 -5.7 0.1 0 -1.4 14.8 -7.6 23 -9.7 5.9 -1.5 9.2 -2.9 10.8 -4.7 3.1 -3.3 7.3 -4.2 23.7 -4.9 22.2 -0.9 46.8 2.6 71.8 10.2 16.6 5 28.9 10.1 56.7 23.5 26.5 12.7 40.5 18.4 54.5 22.3 38 10.6 68.3 10.1 107.7 -1.8 4.4 -1.4 0.5 1.3 -9.1 6 -12.1 6 -29.3 11.7 -45.6 15.1 -11.5 2.4 -15.2 2.8 -33 2.8 -22.3 0.1 -29.8 -1 -50.8 -7 -20.6 -5.9 -42.3 -15.3 -75.2 -32.7 -10.4 -5.4 -32.2 -14.3 -33.1 -13.4 -0.2 0.2 4.2 3.9 9.8 8.2 33.2 26 65 41.6 100.5 49.2 12.1 2.6 14.2 2.8 37.8 2.8 21.2 -0.1 27 -0.4 37.9 -2.3 45.7 -7.9 78.8 -24.2 115.8 -57.1 l8.3 -7.4 -6.7 6.8 c-3.7 3.7 -6.5 7.2 -6.1 7.8 0.3 0.5 0.1 0.7 -0.4 0.4 -0.6 -0.4 -2.3 0.5 -3.9 1.8 -1.6 1.4 -3.2 2.5 -3.6 2.5 -0.5 0 -0.8 0.9 -0.8 2 0 1.3 -0.5 1.7 -1.4 1.4 -0.8 -0.3 -3.8 1.3 -6.6 3.5 -2.9 2.3 -4.7 4.1 -4 4.1 0.6 0 0.8 0.5 0.4 1.1 -0.4 0.8 -0.9 0.7 -1.5 -0.2 -0.8 -1.1 -1.4 -0.9 -3.2 1.1 -1.2 1.4 -2.9 2.5 -3.7 2.5 -0.9 0 -1.5 0.9 -1.5 2.2 0 1.1 -0.3 2.5 -0.7 2.9 -0.5 0.4 -0.8 1.6 -0.8 2.7 0 2.6 -0.9 1.8 -1.3 -1.4 -0.4 -2.7 -0.8 -2.8 -5.5 -0.9 -2.5 0.9 -3.2 1.7 -2.9 3.1 0.3 1.1 0.1 1.9 -0.4 1.9 -0.5 0 -0.9 -0.5 -0.9 -1.1 0 -0.6 -0.5 -0.9 -1.2 -0.7 -1.1 0.4 -1.4 2.4 -0.9 5.6 0.1 0.4 1.6 1.4 3.4 2.2 l3.2 1.5 -3.2 0.3 c-4.4 0.4 -4.5 3.8 -0.2 7.1 2.6 2.1 6.2 7.9 6.3 10.5 0.1 0.5 -1.1 1 -2.6 1.2 -1.8 0.2 -2.7 -0.3 -3.1 -1.6 -0.3 -1.1 0.1 -2.1 1 -2.4 1 -0.4 1.1 -1 0.4 -2.5 -0.6 -1 -0.7 -2.1 -0.4 -2.5 0.3 -0.3 0.1 -0.6 -0.5 -0.6 -0.7 0 -1.2 0.7 -1.2 1.5 0 0.8 -0.7 1.5 -1.6 1.5 -1.2 0 -1.4 -0.7 -0.8 -3.2 0.6 -2.9 0.5 -3.1 -1 -1.9 -1.4 1.2 -1.6 1 -1.6 -1.8 0 -2.1 -0.5 -3.1 -1.5 -3.1 -0.8 0 -1.5 0.5 -1.5 1 0 0.6 -0.9 1 -1.9 1 -1.1 0 -2.1 0.5 -2.3 1.1 -0.3 0.8 -1 0.8 -2.7 -0.2 -1.8 -1.1 -2.1 -2 -1.7 -4.6 0.4 -2.5 0.2 -3.1 -1 -2.6 -1.2 0.4 -1.4 1.5 -0.9 4.7 0.9 5.2 1.8 6.3 5.4 6.4 2.2 0 2.8 -0.3 2.4 -1.4 -0.3 -0.8 0.1 -1.4 0.8 -1.4 1.7 0 4 4.6 3.3 6.5 -0.3 0.7 0 2.3 0.6 3.6 1.1 1.9 0.9 2.5 -1.5 4.5 -2.6 2.2 -4.5 2.3 -7.3 0.1 -0.9 -0.7 -1.6 -0.7 -2 0 -0.4 0.5 -1.4 1.3 -2.2 1.6 -0.9 0.3 -0.5 0.6 1.1 0.6 2.7 0.1 4.9 1.8 4.9 3.8 0 0.7 -0.6 1.3 -1.2 1.3 -0.7 0 -2.4 0.9 -3.8 2 -2.4 1.9 -2.4 1.9 3 0 5.6 -2.1 6.5 -2.5 23 -11.2 14.2 -7.4 32.3 -19.5 31.4 -20.9 -0.3 -0.5 0.1 -0.6 0.8 -0.4 0.8 0.3 6.5 -3.8 12.9 -9.2 12.5 -10.6 17.2 -15.3 26.4 -25.8 3.3 -3.8 6.7 -7.6 7.5 -8.5 0.8 -0.8 2.4 -2.8 3.5 -4.4 1.1 -1.6 2.9 -4.1 4 -5.6 1.1 -1.6 5.1 -7.4 8.9 -13 3.9 -5.6 7.6 -10.4 8.3 -10.7 0.7 -0.3 1.1 -0.8 0.8 -1.2 -0.2 -0.4 2.7 -7 6.5 -14.6 3.9 -7.7 7 -14.5 7 -15.2 0 -0.7 0.9 -1.3 2 -1.3 2.4 0 2.4 -0.2 0.4 4.6 -6.8 16.5 -21.5 41 -36.4 60.9 -7.5 9.9 -31 33.4 -43.4 43.3 -21 16.8 -52.1 34 -75.1 41.5 -18.2 6 -38.8 10.3 -56.2 11.8 -13.8 1.2 -16.3 2.1 -18.8 6.9 -0.9 1.8 -2.3 3 -3.5 3 -1.7 0 -2 0.7 -2 5.1 0 2.9 1.6 13.1 3.6 22.8 3.1 15.2 3.6 18.9 3.2 27.6 -0.6 11.9 -2.7 17.1 -8.8 21.1 -4.9 3.2 -15.6 4.3 -20.5 2.1z m107 -105.8 c0.7 -0.7 0.4 -0.8 -0.9 -0.3 -1.1 0.4 -2.1 0.2 -2.7 -0.7 -0.7 -1.1 -0.9 -1.1 -0.9 0.3 0 0.9 -0.6 1.9 -1.2 2.2 -0.7 0.3 0.1 0.4 1.7 0 1.7 -0.3 3.5 -1 4 -1.5z m13.5 -14.5 c0 -0.8 -0.6 -1.1 -1.5 -0.8 -0.8 0.4 -1.5 1.2 -1.5 2 0 0.8 0.6 1.1 1.5 0.8 0.8 -0.4 1.5 -1.2 1.5 -2z m-9.2 -4.6 c1.8 -1.8 1.5 -3.5 -0.8 -4.1 -1.1 -0.3 -2 -0.1 -2 0.4 0 0.5 0.5 0.9 1 0.9 0.7 0 0.7 0.6 0 2 -1.2 2.2 -0.1 2.7 1.8 0.8z m-17.3 -2.8 c0.3 -0.5 -0.1 -1 -0.9 -1 -0.8 0 -1.8 0.5 -2.1 1 -0.3 0.6 0.1 1 0.9 1 0.8 0 1.8 -0.4 2.1 -1z m-58.7 -6.2 c-0.6 -1.7 -3.2 -2.1 -8.4 -1.3 -6.2 0.9 -4.5 2.5 2.7 2.5 4.4 0 6 -0.3 5.7 -1.2z m81.5 -5.9 c-0.6 -2.3 0.5 -2.4 2.9 -0.2 1.6 1.5 1.8 1.5 1.8 0 0 -0.9 -0.8 -2.1 -1.7 -2.6 -1.7 -1 -1.7 -1 0 -1.1 0.9 0 1.7 -0.4 1.7 -1 0 -0.5 -1.5 -0.2 -3.4 0.7 -3.6 1.6 -5.2 5.3 -3.3 7.2 1.4 1.4 2.6 -0.5 2 -3z m-35.5 -2.5 c5.3 -1.5 11.5 -3.4 13.7 -4.4 2.2 -1 4.7 -2.1 5.5 -2.4 0.8 -0.3 0.4 -0.4 -1 -0.1 -1.4 0.3 -5.9 1 -10 1.6 -10.1 1.5 -10.9 1.7 -9 2.9 1.3 0.8 1.2 1 -0.2 1 -0.9 0 -2.5 0.3 -3.5 0.6 -1.6 0.5 -1.6 0.4 0.1 -1 1.9 -1.5 1.7 -1.6 -3 -1.5 -2.7 0.1 -4.1 0.3 -3.1 0.6 2.5 0.6 2.1 2.3 -0.5 2.4 -1.3 0 -1.7 0.3 -0.9 0.6 1.1 0.5 1.1 0.7 0 1.4 -2.6 1.6 1.8 1 11.9 -1.7z"/>
  <path d="M629.9 649.3 c-0.1 -0.5 -0.1 -1.2 0 -1.6 0.1 -0.4 -0.3 -1.7 -0.9 -2.7 -0.6 -1.1 -0.9 -2 -0.6 -2 0.2 0 1.1 -0.3 1.9 -0.6 1.2 -0.4 1.4 0 1 1.5 -0.3 1.2 -0.1 2.1 0.5 2.1 0.6 0 0.8 0.9 0.5 2 -0.5 1.9 -2.2 2.8 -2.4 1.3z"/>
  <path d="M637 637.1 c0 -0.5 -1 -1.3 -2.1 -1.6 -1.6 -0.5 -1.8 -0.9 -0.9 -1.5 0.7 -0.4 2 -0.1 3.1 0.8 2.1 1.8 2.5 3.2 0.9 3.2 -0.5 0 -1 -0.4 -1 -0.9z"/>
  <path d="M639.4 632.6 c-0.4 -1.1 -0.2 -2.1 0.7 -2.7 1.8 -1.1 2.4 0.5 1 2.8 -0.9 1.7 -1 1.7 -1.7 -0.1z"/>
  <path d="M546 599.6 c-22.8 -3.3 -49.9 -12.5 -76 -25.6 -57 -28.7 -112.4 -38.3 -160.9 -27.8 -16 3.4 -45.4 14.6 -60.7 23.2 -2.4 1.3 -4.4 2.2 -4.4 1.8 0 -0.3 2.5 -3.9 5.6 -7.9 18.6 -24.3 52.9 -45.1 87.2 -52.8 34.6 -7.9 74 -4.7 115.5 9.4 11.2 3.8 16 5.8 55.2 23.1 20.3 8.9 50.9 19.7 62.4 22.1 3.1 0.6 12.4 1.5 20.6 1.9 l15 0.7 -13 0.1 c-7.1 0.1 -16.1 -0.3 -19.9 -0.8 -5.1 -0.8 -7.1 -0.7 -7.7 0.1 -0.3 0.6 -1.6 0.8 -2.7 0.5 -1.2 -0.4 -3 -0.3 -4 0.3 -1.4 0.7 -2.4 0.6 -3.8 -0.4 -2.5 -1.9 -5.5 -2.1 -3.2 -0.2 2.2 1.7 2.9 5.4 1.2 6.8 -1.1 0.9 -1.4 0.8 -1.4 -0.5 0 -1 -0.5 -1.4 -1.1 -1.1 -1.4 0.9 1.6 4.2 3.9 4.2 0.9 0 2.5 -0.9 3.5 -2 1.7 -2 1.7 -2 1.7 0.1 0 1.3 -0.6 2.2 -1.5 2.2 -0.8 0 -1.5 0.5 -1.5 1.1 0 0.8 -1.2 1 -3.5 0.6 -2.6 -0.4 -3.5 -0.2 -3.5 0.8 0 0.8 0.8 1.2 2 1 1.1 -0.2 2 0.1 2 0.7 0 0.5 -0.9 1.2 -2 1.5 -1.1 0.3 -2 1.2 -2 2 0 1 0.7 1.4 2 1 1 -0.3 2.1 0 2.4 0.7 0.3 0.7 0.5 0.7 0.5 -0.1 0.1 -0.7 1.3 -1.3 2.7 -1.3 1.4 0 2.3 0.4 1.9 1 -0.3 0.5 -1.2 0.7 -1.9 0.4 -0.7 -0.3 -1.6 0.2 -1.9 1 -0.4 1 -0.1 1.6 0.8 1.6 0.8 0 1.5 0.5 1.5 1.1 0 0.6 -0.7 0.8 -1.6 0.5 -0.9 -0.3 -2 -0.6 -2.5 -0.6 -0.5 0 -0.9 -0.7 -0.9 -1.5 0 -0.9 -0.6 -1.2 -1.5 -0.9 -2.2 0.9 -1.8 3.4 0.5 3.4 1.1 0 2 0.4 2 0.9 0 0.5 0.3 1.6 0.6 2.5 0.5 1.2 0 1.6 -2 1.6 -1.4 0 -2.6 0.5 -2.6 1 0 1.4 3.3 2.6 3.7 1.4 0.3 -1 28.8 -1 32.2 0.1 1.3 0.4 2.7 0.1 3.7 -0.9 0.8 -0.9 2.6 -1.6 3.8 -1.6 4.6 0 31.9 -6 40.7 -9 10.3 -3.4 22.9 -9.9 31.7 -16.2 13.8 -10 28.7 -23.4 34.9 -31.5 2.4 -3.2 6.3 -4.5 6.3 -2.2 0 0.6 -6.4 7.5 -14.2 15.3 -28.3 28.1 -49.4 38.8 -89.8 45.6 -16.2 2.7 -42.8 3.5 -56 1.6z m-6 -5.5 c0 -1.7 -1.5 -1.9 -2.8 -0.5 -1.1 1.2 -0.9 1.4 0.8 1.4 1.1 0 2 -0.4 2 -0.9z m5 -7.6 c1 -1.2 1 -1.5 -0.4 -1.5 -0.9 0 -1.6 0.7 -1.6 1.5 0 0.8 0.2 1.5 0.4 1.5 0.2 0 0.9 -0.7 1.6 -1.5z m-2.1 -9.2 c0.1 -0.7 -0.3 -1.3 -0.9 -1.3 -0.5 0 -1 0.7 -1 1.5 0 0.8 -1 1.6 -2.2 1.6 l-2.3 0.2 2.3 0.4 c1.2 0.2 2.2 1 2.3 1.6 0.1 1.4 1.7 -2.2 1.8 -4z m4.3 -3.8 c0 -0.5 -0.5 -1.1 -1.1 -1.3 -0.6 -0.2 -1.1 0.4 -1.1 1.3 0 0.9 0.5 1.5 1.1 1.3 0.6 -0.2 1.1 -0.8 1.1 -1.3z"/>
  <path d="M558.7 594 c0.3 -1.1 0.9 -1.7 1.4 -1.4 1.4 0.8 1 3.4 -0.5 3.4 -0.9 0 -1.2 -0.7 -0.9 -2z"/>
  <path d="M690 571.5 c1.9 -1.9 3.6 -3.5 3.9 -3.5 0.3 0 -1 1.6 -2.9 3.5 -1.9 1.9 -3.6 3.5 -3.9 3.5 -0.3 0 1 -1.6 2.9 -3.5z"/>
  <path d="M606.2 567.5 c0.2 -0.3 4.5 -1.2 9.4 -2 16.4 -2.8 29.4 -7.4 43.1 -15.1 4.3 -2.4 6.7 -3.4 5.3 -2.2 -3.6 3 -21.1 11.2 -30.5 14.2 -9.5 3 -28.9 6.6 -27.3 5.1z"/>
  <path d="M698 562.5 c1.3 -1.4 2.5 -2.5 2.7 -2.5 0.9 0 -3.3 4.9 -4.1 5 -0.5 0 0.1 -1.1 1.4 -2.5z"/>
  <path d="M583 550.5 c-4.1 -0.7 -11.8 -2.4 -17.1 -3.9 -15.5 -4.2 -24.7 -7.7 -68.4 -26.1 -29.7 -12.5 -52.7 -19.7 -77 -24.1 -14.4 -2.6 -49.7 -2.6 -65 0 -6 1 -12.4 2 -14.1 2.1 l-3.1 0.3 -0.6 -6.5 c-0.4 -3.6 -0.4 -7 -0.1 -7.5 0.9 -1.4 5.7 -3.3 47.9 -19.5 105.1 -40.1 133.4 -50.2 161.1 -57.4 22.2 -5.7 27.9 -6.5 8.7 -1.1 -7.2 2 -13.5 4.1 -14 4.6 -0.5 0.5 0 0.6 1 0.3 1.4 -0.5 2 -0.2 2.4 1.3 0.3 1 1.3 2.2 2.3 2.5 2.5 0.8 3.2 3.1 1.4 4.5 -0.8 0.7 -1.4 2.1 -1.4 3.1 0 1.1 -0.5 1.9 -1.1 1.9 -0.5 0 -0.9 0.8 -0.8 1.8 0.3 3.4 -0.1 4.4 -1.6 3.8 -1.9 -0.7 -1.9 -0.2 0 3.4 1.6 3.2 3 3.8 3.8 1.8 0.3 -0.8 0.6 -0.6 0.6 0.5 0.1 0.9 -0.2 1.7 -0.6 1.8 -5 0.5 -8.1 1.9 -4.2 1.9 1.9 0 2.1 0.2 0.9 1 -1.3 0.8 -1.2 1 0.3 1 0.9 0 1.7 -0.4 1.7 -1 0 -1.6 1.7 -1.2 2.4 0.6 0.3 0.9 0.2 1.2 -0.4 0.9 -1.4 -0.9 -4.1 5.7 -2.9 7.1 0.5 0.6 0.7 2 0.3 3 -0.5 1.6 -0.4 1.6 0.5 0.4 0.9 -1.3 1.1 -1.3 1.1 0 0 1.3 0.1 1.3 1.1 0 0.8 -1.2 0.9 -0.9 0.4 1 -0.3 1.4 -0.6 3 -0.6 3.5 0.3 4.2 0.8 6.1 1.9 6.8 1.8 1.2 1.5 2.7 -0.6 2.7 -2.5 0 -5.4 3.3 -4.6 5.3 0.7 1.9 2.5 0.6 3.8 -2.8 0.6 -1.6 0.9 -1.7 1.6 -0.5 0.6 0.9 0.6 1.6 0 1.8 -1.5 0.5 -1.2 4.2 0.5 5.8 0.8 0.9 1.5 1.2 1.5 0.8 0 -0.3 0.7 -0.1 1.5 0.6 0.8 0.7 1.5 1.8 1.4 2.4 0 0.7 -0.2 0.6 -0.6 -0.1 -0.2 -0.7 -1.3 -1.3 -2.4 -1.3 -1 0 -1.9 -0.4 -1.9 -1 0 -0.6 -1 -0.5 -2.6 0.2 -2.2 1 -2.5 1.6 -2 4.2 0.4 1.7 1.1 3.3 1.6 3.4 0.6 0.2 1 1.2 1 2.3 0 1.7 1 2.3 3.2 2.1 0.3 -0.1 0.8 0.5 1.1 1.2 0.7 1.9 -3.4 7.6 -5.5 7.6 -1 0 -1.8 0.4 -1.8 1 0 0.5 0.8 1.4 1.8 1.9 1.6 1 1.5 1 -0.3 1.1 -1.1 0.1 -1.4 0.4 -0.7 0.7 0.6 0.2 1.2 1.3 1.2 2.4 0 1 0.5 1.9 1 1.9 0.6 0 1 0.6 1 1.4 0 2 2.2 2.5 3.8 1 0.7 -0.7 2 -1 2.8 -0.7 1.3 0.5 1.3 0.7 0.2 1.4 -0.7 0.5 -0.8 0.9 -0.3 0.9 0.6 0 0.3 0.5 -0.5 1 -1.3 0.8 -1.2 1 0.3 1 0.9 0 1.7 0.7 1.7 1.5 0 0.8 -0.5 1.5 -1.1 1.5 -0.5 0 -0.8 -0.4 -0.5 -0.9 0.3 -0.4 -0.7 -0.8 -2.3 -0.7 l-2.8 0.1 2.1 2.6 c1.1 1.5 2.4 2.5 2.8 2.3 1.7 -1 2 6.8 0.4 9.5 -0.5 0.7 -0.5 2.3 -0.2 3.6 0.4 1.7 1.1 2.2 2.5 1.8 2.3 -0.6 3.8 2.5 1.6 3.3 -0.8 0.4 -2.1 0.4 -2.8 0.1 -0.8 -0.3 -2 -0.1 -2.7 0.3 -1.5 0.9 5.4 3.2 10.2 3.4 1.6 0 2.8 0.4 2.8 0.9 0 0.4 0.7 0.7 1.5 0.7 0.8 0 1.5 0.7 1.5 1.5 0 1.9 0.7 1.9 2.7 -0.1 0.9 -0.8 1.9 -1.1 2.2 -0.7 0.9 1.4 4.2 2.5 8.6 2.9 8.6 0.7 12.4 1.6 13.5 2.9 1.1 1.3 0.6 1.5 -2.6 1.4 -2.2 -0.1 -7.3 -0.7 -11.4 -1.4z m-28 -26 c0 -0.8 -0.4 -1.5 -0.9 -1.5 -1.3 0 -2.2 1.6 -1.4 2.4 1.1 1.1 2.3 0.6 2.3 -0.9z m-7.4 -10.4 c-0.4 -0.5 0 -1.2 0.6 -1.4 0.8 -0.4 0.7 -0.6 -0.3 -0.6 -0.9 -0.1 -1.9 0.6 -2.3 1.4 -0.3 0.9 0 1.5 1 1.5 0.8 0 1.3 -0.4 1 -0.9z m0.4 -18.7 c0 -0.2 -1.2 -0.4 -2.7 -0.4 -2.1 0 -2.4 0.3 -1.4 0.9 1.3 0.8 4.1 0.5 4.1 -0.5z m0 -3.2 c-0.1 -1.6 -1.9 -3.4 -2.9 -2.8 -0.7 0.5 -0.7 1.2 0.1 2.6 1.1 1.7 2.8 1.8 2.8 0.2z"/>
  <path d="M610 551.3 c1.9 -0.2 3.8 -0.9 4.1 -1.5 0.4 -0.6 2.4 -1.2 4.5 -1.4 7.4 -0.7 18.4 -3.5 18.4 -4.6 0 -0.5 -0.6 -0.8 -1.3 -0.8 -2.1 0 -9.7 -3.9 -9.7 -5 0 -0.6 -0.6 -1 -1.3 -1 -1.9 0 -7.6 -7.8 -8.9 -12.3 -2.3 -7.6 4.1 -36.7 8 -36.7 1.3 0 1.4 -0.2 0.4 -0.8 -1.8 -1.2 0.2 -6.2 2.5 -6.2 1.5 0 1.6 -0.2 0.3 -1 -1.3 -0.8 -1.2 -1 0.4 -1 1.3 0 1.6 0.4 1.1 1.8 -7.1 16.2 -11.7 37.5 -9.7 44.7 2.4 8.4 12.2 16 22.2 17.2 2.7 0.3 5 0.9 5 1.2 0 0.9 -8.2 3.9 -15.7 5.7 -3.2 0.7 -9.8 1.6 -14.8 1.8 -4.9 0.2 -7.4 0.2 -5.5 -0.1z"/>
  <path d="M710 545.9 c1.2 -1.6 2.4 -2.8 2.7 -2.5 0.3 0.3 -0.2 1.2 -1.1 2.1 -0.9 0.9 -1.6 2.1 -1.6 2.6 0 0.5 -0.5 0.9 -1.1 0.9 -0.6 0 -0.1 -1.4 1.1 -3.1z"/>
  <path d="M667.5 545.4 c0.6 -0.6 4.2 -3.9 8 -7.4 6.5 -6 6.6 -6 2 -1.1 -2.7 2.9 -6.3 6.2 -8 7.3 -1.6 1.2 -2.5 1.7 -2 1.2z"/>
  <path d="M705.2 535.1 c-1 -0.6 -0.4 -2.3 2.8 -7.2 8.3 -12.8 18 -36.5 18 -44 0 -1.1 0.7 -1.9 1.5 -1.9 5.1 0 -5.5 30.6 -16.7 47.8 -2.2 3.4 -4.1 6.2 -4.2 6.2 0 0 -0.7 -0.4 -1.4 -0.9z"/>
  <path d="M558 527.6 c0 -0.9 0.7 -1.6 1.6 -1.6 1.7 0 1.4 2.2 -0.4 2.8 -0.7 0.2 -1.2 -0.3 -1.2 -1.2z"/>
  <path d="M682.8 527.1 c-0.7 -2.3 -0.9 -2.4 -8.5 -1.7 -4.3 0.3 -12.5 0.9 -18.2 1.3 -9.5 0.6 -10.4 0.5 -9.8 -1 0.4 -1 0.2 -1.7 -0.2 -1.7 -0.5 0 -1.1 0.5 -1.3 1.1 -0.3 0.8 -1.8 0.9 -4.8 0.4 l-4.5 -0.8 7.5 -1.3 c4.1 -0.6 8.9 -1.5 10.5 -1.8 2.7 -0.6 2.7 -0.5 -0.5 0.8 -3.3 1.3 -3 1.4 6.6 1.2 5.6 0 10 -0.4 9.7 -0.8 -0.2 -0.5 2.2 -0.8 5.4 -0.8 6.7 0.1 9.6 1.7 9.1 5.2 l-0.3 2.3 -0.7 -2.4z"/>
  <path d="M727.3 517 c1.1 -2.7 2.3 -4.8 2.5 -4.6 0.4 0.5 -3.5 9.6 -4.2 9.6 -0.2 0 0.5 -2.2 1.7 -5z"/>
  <path d="M660 519.8 c0.8 -0.8 10 -4.7 10 -4.3 0 0.3 -1.2 1.1 -2.7 1.8 -3 1.6 -8.1 3.3 -7.3 2.5z"/>
  <path d="M762.2 515.2 c-0.9 -0.7 -0.5 -3.2 2.1 -11.3 1.9 -5.7 4.2 -13.4 5.2 -17.1 1.3 -4.7 2.3 -6.8 3.4 -6.9 1 0 1.2 -0.2 0.4 -0.6 -1.8 -0.7 -1.6 -4.3 0.2 -4.3 2.1 0 1.9 2 -1 13 -2.3 8.6 -8.4 28 -8.8 28 -0.1 0 -0.8 -0.4 -1.5 -0.8z"/>
  <path d="M550.6 502.6 c0.3 -0.8 1.2 -1.2 2 -0.9 1.7 0.6 0.9 2.3 -1.1 2.3 -0.8 0 -1.2 -0.6 -0.9 -1.4z"/>
  <path d="M727 476.5 c0 -1.6 0.6 -2.5 1.5 -2.5 0.9 0 1.5 0.9 1.5 2.5 0 1.6 -0.6 2.5 -1.5 2.5 -0.9 0 -1.5 -0.9 -1.5 -2.5z"/>
  <path d="M551.4 473.6 c-0.8 -0.8 -0.7 -1.5 0.3 -2.4 1.5 -1.5 1.8 -3.6 0.3 -2.7 -0.6 0.3 -0.7 -0.1 -0.3 -1 0.8 -2.4 2.5 0.4 1.7 2.9 -0.4 1.1 -0.2 1.6 0.4 1.2 0.5 -0.3 1.2 0 1.5 0.8 0.7 1.8 -2.5 2.7 -3.9 1.2z"/>
  <path d="M630.1 474.1 c-1.8 -1.1 0.3 -5.1 2.7 -5.1 1.5 0 1.5 -0.2 0.2 -1 -1.3 -0.8 -1.2 -1 0.3 -1 2.1 0 2.1 0.6 -0.1 4.7 -1.2 2.3 -2.1 3 -3.1 2.4z"/>
  <path d="M773 472 c0 -0.5 0.8 -1 1.8 -1 1.3 0 1.4 -0.2 0.3 -0.9 -2 -1.3 -0.5 -11.1 1.7 -11.2 1.1 0 1.2 -0.2 0.5 -0.6 -1.9 -0.7 -1.7 -6.3 0.2 -6.3 2.1 0 1.7 6.1 -1 18.8 -0.5 2.1 -3.5 3.2 -3.5 1.2z"/>
  <path d="M728 462.5 c0 -6.9 0.3 -8.5 1.5 -8.5 1.2 0 1.5 1.6 1.5 8.5 0 6.9 -0.3 8.5 -1.5 8.5 -1.2 0 -1.5 -1.6 -1.5 -8.5z"/>
  <path d="M347.6 463.8 c0.4 -2.9 2.3 -17.1 4.3 -31.6 l3.6 -26.3 4.5 -2.5 c2.5 -1.4 17.6 -9.2 33.5 -17.4 34.3 -17.5 47.1 -24.1 58.4 -30.4 6.6 -3.6 9.3 -4.6 13 -4.6 3.8 0 31.7 1.9 92.1 6.4 3.6 0.3 13.1 0.8 21.3 1.2 8.2 0.4 14.7 1.1 14.7 1.7 0 0.5 -0.6 0.7 -1.4 0.4 -3 -1.2 -38.3 -2 -39 -0.9 -0.4 0.6 -1.3 0.9 -2 0.6 -0.8 -0.3 -2.8 0.2 -4.5 1 -1.7 0.9 -3.4 1.6 -3.7 1.5 -0.9 -0.1 -2.4 2.3 -2.4 3.9 0 0.8 0.8 1 2.5 0.6 1.5 -0.4 2.5 -0.2 2.5 0.5 0 0.6 -0.7 1.1 -1.5 1.1 -0.8 0 -1.5 0.7 -1.5 1.5 0 0.8 0.5 1.5 1 1.5 0.6 0 1 0.5 1 1 0 0.6 -0.7 1 -1.5 1 -1.2 0 -1.5 1.8 -1.5 10.1 l0 10 4.8 -0.7 c2.6 -0.3 5 -0.9 5.5 -1.1 0.4 -0.2 0.7 -4 0.6 -8.3 -0.1 -4.3 0.2 -8.3 0.6 -8.9 0.4 -0.7 4 -1 9.3 -0.9 4.8 0.1 6.8 0.3 4.5 0.5 -2.4 0.2 -4.3 0.8 -4.3 1.4 0 0.5 -1.6 0.9 -3.5 0.9 l-3.5 0 0 8.8 0 8.9 -12.7 3.3 c-25.2 6.5 -63.5 19.9 -109.3 38 -15.1 6 -32.9 12.9 -39.5 15.3 -6.6 2.5 -19.5 7.5 -28.7 11.1 -9.2 3.6 -17 6.6 -17.3 6.6 -0.3 0 -0.3 -2.4 0.1 -5.2z m25.7 -25.8 l3.8 -1.4 -0.3 -5.8 c-0.1 -3.2 -0.5 -5.7 -0.8 -5.5 -0.3 0.1 -2.2 0.9 -4.2 1.7 -3.8 1.4 -3.8 1.4 -3.8 7.3 0 3.2 0.3 5.7 0.8 5.5 0.4 -0.2 2.4 -1 4.5 -1.8z m26.5 -10.7 c0.8 -0.3 1.2 -2.7 1.2 -6.9 l0 -6.4 -3.2 1.4 c-10.6 4.5 -11 4.8 -10.4 8.6 0.3 1.9 0.6 4.5 0.6 5.7 l0 2.3 5.3 -2.1 c2.8 -1.2 5.8 -2.3 6.5 -2.6z m21.7 -8.5 l7 -2.8 -0.3 -7 -0.4 -7 -3.6 1.6 c-2 0.9 -5.4 2.3 -7.4 3.2 l-3.8 1.5 0 6.9 c0 3.8 0.3 6.8 0.8 6.6 0.4 -0.1 3.9 -1.5 7.7 -3z m69.9 -8.4 c0.4 -1 0.1 -1.4 -0.6 -1.2 -1.5 0.5 -2.3 2.8 -1 2.8 0.5 0 1.3 -0.7 1.6 -1.6z m-41.6 -3 l7.2 -2.7 0 -7.8 c0 -4.4 -0.2 -7.9 -0.5 -7.9 -0.3 0 -4.2 1.6 -8.5 3.6 l-8 3.7 0 6.8 c0 4.9 0.4 6.9 1.3 6.9 0.6 0 4.5 -1.2 8.5 -2.6z m89.8 -30.1 c-0.4 -0.9 -3 -1.3 -9.6 -1.3 l-9.1 0 0.3 10.3 0.3 10.2 9 0.5 9 0.5 0.3 -9.4 c0.1 -5.2 0 -10.1 -0.2 -10.8z m-34.1 8.2 l0 -10 -9.2 -0.3 -9.3 -0.3 0 10 0 10 7.8 0.4 c4.2 0.2 8.4 0.3 9.2 0.2 1.2 0 1.5 -1.8 1.5 -10z m30.5 -11.4 c0 -0.5 0.8 -1.2 1.8 -1.4 0.9 -0.3 -1.9 -0.4 -6.2 -0.4 -5.3 0.1 -8.1 0.6 -8.4 1.5 -0.3 0.9 1.4 1.2 6.2 1.2 3.6 0 6.6 -0.4 6.6 -0.9z m-1.2 -16.8 c-1 -0.2 -2.8 -0.2 -4 0 -1.3 0.2 -0.5 0.4 1.7 0.4 2.2 0.1 3.2 -0.1 2.3 -0.4z"/>
  <path d="M550.1 459.1 c-1 -0.6 -1 -1 -0.1 -1.6 1.3 -0.8 2.4 -0.1 1.9 1.4 -0.3 0.6 -1 0.7 -1.8 0.2z"/>
  <path d="M642 455 c-1.2 -0.8 -1.2 -1 0.3 -1.6 2.1 -0.8 3.5 0.2 2.1 1.6 -0.5 0.5 -1.5 0.6 -2.4 0z"/>
  <path d="M548 450.3 c0.8 -0.3 1.8 -1.1 2.2 -1.7 0.5 -0.7 0.8 -0.4 0.8 0.7 0 1.1 -0.7 1.7 -2.2 1.6 -1.6 0 -1.8 -0.2 -0.8 -0.6z"/>
  <path d="M646 450 c-1.2 -0.8 -1.2 -1 0.3 -1.6 2.1 -0.8 3.5 0.2 2.1 1.6 -0.5 0.5 -1.5 0.6 -2.4 0z"/>
  <path d="M777 445.5 c0 -0.8 0.7 -1.5 1.5 -1.5 0.8 0 1.5 0.7 1.5 1.5 0 0.8 -0.7 1.5 -1.5 1.5 -0.8 0 -1.5 -0.7 -1.5 -1.5z"/>
  <path d="M727 445 c0 -0.5 0.7 -1 1.5 -1 0.8 0 1.5 0.5 1.5 1 0 0.6 -0.7 1 -1.5 1 -0.8 0 -1.5 -0.4 -1.5 -1z"/>
  <path d="M749.3 441.5 c0 -2.2 0.2 -3 0.4 -1.7 0.2 1.2 0.2 3 0 4 -0.3 0.9 -0.5 -0.1 -0.4 -2.3z"/>
  <path d="M726 438 c0 -0.5 0.7 -1 1.5 -1 0.8 0 1.5 0.5 1.5 1 0 0.6 -0.7 1 -1.5 1 -0.8 0 -1.5 -0.4 -1.5 -1z"/>
  <path d="M778 437.1 c0 -1 0.7 -2.1 1.5 -2.5 1.1 -0.4 1.5 0.1 1.5 1.9 0 1.6 -0.6 2.5 -1.5 2.5 -0.8 0 -1.5 -0.9 -1.5 -1.9z"/>
  <path d="M657 436 c-1.2 -0.8 -1.2 -1 0.3 -1.6 2.1 -0.8 3.5 0.2 2.1 1.6 -0.5 0.5 -1.5 0.6 -2.4 0z"/>
  <path d="M547.3 431.2 c-0.8 -0.5 -0.9 -1.3 -0.3 -2.2 0.7 -1.2 1.2 -1.2 2.2 -0.2 1.4 1.4 -0.1 3.5 -1.9 2.4z"/>
  <path d="M750.3 427.5 c0 -2.2 0.2 -3 0.4 -1.7 0.2 1.2 0.2 3 0 4 -0.3 0.9 -0.5 -0.1 -0.4 -2.3z"/>
  <path d="M724 426.2 c0 -2 -0.2 -6.2 -0.5 -9.2 l-0.5 -5.5 2 7.5 c2.4 9.2 2.4 9.6 0.5 10.4 -1.2 0.4 -1.5 -0.3 -1.5 -3.2z"/>
  <path d="M553.4 426.9 c-0.3 -0.6 -0.1 -1.6 0.5 -2.2 0.8 -0.8 1.1 -0.5 1.1 1.1 0 2.4 -0.5 2.8 -1.6 1.1z"/>
  <path d="M570 402.7 c0 -0.7 14.1 -3.9 14.7 -3.3 0.2 0.2 -1.9 0.9 -4.9 1.5 -2.9 0.7 -6.3 1.4 -7.5 1.7 -1.3 0.4 -2.3 0.4 -2.3 0.1z"/>
  <path d="M619.8 394.3 c1.2 -0.2 3.2 -0.2 4.5 0 1.2 0.2 0.2 0.4 -2.3 0.4 -2.5 0 -3.5 -0.2 -2.2 -0.4z"/>
  <path d="M810.8 392.3 c1.2 -0.2 3.2 -0.2 4.5 0 1.2 0.2 0.2 0.4 -2.3 0.4 -2.5 0 -3.5 -0.2 -2.2 -0.4z"/>
  <path d="M573.2 385.1 c0.1 -5.1 0.2 -5.2 0.5 -1.3 0.4 3.9 0.6 4.2 2.6 3.5 1.2 -0.4 3.3 -0.6 4.7 -0.6 1.4 0.1 2.8 -0.3 3.1 -0.8 0.7 -1.2 12.9 -2 12.9 -0.8 0 0.5 -0.1 0.9 -0.2 0.9 -0.2 0 -5.6 1.1 -12 2.4 l-11.8 2.3 0.2 -5.6z"/>
  <path d="M736 387.5 c0 -0.8 0.7 -1.5 1.5 -1.5 0.8 0 1.5 0.7 1.5 1.5 0 0.8 -0.7 1.5 -1.5 1.5 -0.8 0 -1.5 -0.7 -1.5 -1.5z"/>
  <path d="M600 384.1 c0 -1.4 2.8 -3.3 4 -2.6 2 1.2 1 3.5 -1.5 3.5 -1.4 0 -2.5 -0.4 -2.5 -0.9z"/>
  <path d="M684 379.5 c0 -0.8 0.7 -1.5 1.5 -1.5 0.8 0 1.5 0.7 1.5 1.5 0 0.8 -0.7 1.5 -1.5 1.5 -0.8 0 -1.5 -0.7 -1.5 -1.5z"/>
  <path d="M388.3 378 c0.2 -0.8 1.7 -10.5 3.3 -21.6 l2.8 -20 21.8 -11.7 21.8 -11.7 28.7 0.2 28.8 0.3 0.3 7.2 0.3 7.1 6.2 0.6 c3.4 0.3 15 1 25.7 1.6 15.8 0.8 19.9 1.4 21.8 2.8 2.2 1.6 7.7 13 6.8 13.9 -0.2 0.3 -22.2 -1 -48.8 -2.8 l-48.3 -3.3 -14.5 7.4 c-8 4 -23.6 12.4 -34.7 18.6 -11.2 6.2 -20.3 10.9 -20.3 10.6 0 -0.4 -0.5 0 -1.1 0.8 -1 1.3 -1 1.3 -0.6 0z m152.7 -34.2 c0 -0.9 0.4 -0.8 1 0.2 0.8 1.2 1 1.2 1 0.1 0 -1 1.2 -1.2 5 -0.9 3 0.3 4.7 0.1 4.3 -0.5 -0.3 -0.5 0.1 -1.3 0.8 -1.8 1.1 -0.7 0.9 -0.9 -0.6 -0.9 -1.7 0 -1.7 -0.2 -0.5 -1 1 -0.7 1.1 -1 0.2 -1 -0.7 0 -1.7 -1.1 -2.1 -2.4 -1 -2.3 -4.4 -3.6 -10 -3.6 -1.9 0 -2.2 0.3 -1.2 0.9 1.2 0.8 1.2 1.3 -0.3 3.5 -0.9 1.4 -2.3 2.6 -3.2 2.6 -0.8 0 -2.2 0.7 -3 1.5 -1.4 1.3 -1.3 1.5 0.8 1.5 1.3 0 3.3 0.7 4.4 1.5 2.4 1.8 3.4 1.9 3.4 0.3z"/>
  <path d="M599.5 376.9 c-0.4 -0.6 -0.5 -1.3 -0.2 -1.6 0.7 -0.7 2.7 0.6 2.7 1.8 0 1.2 -1.7 1.2 -2.5 -0.2z"/>
  <path d="M595 368 c-2.3 -4.5 -2.4 -5 -1 -5 0.8 0 5 7 5 8.5 0 1.8 -2.3 -0.1 -4 -3.5z"/>
  <path d="M752 355 c2 -1.3 5 -1.3 5 0 0 0.6 -1.5 1 -3.2 1 -2.5 0 -2.9 -0.3 -1.8 -1z"/>
  <path d="M759.8 355.3 c1.2 -0.2 3 -0.2 4 0 0.9 0.3 -0.1 0.5 -2.3 0.4 -2.2 0 -3 -0.2 -1.7 -0.4z"/>
  <path d="M766.5 355 c0.3 -0.5 1.3 -1 2.1 -1 0.8 0 1.4 0.5 1.4 1 0 0.6 -0.9 1 -2.1 1 -1.1 0 -1.7 -0.4 -1.4 -1z"/>
  <path d="M687 340 c0 -0.6 5 -1 12.8 -1.1 7 0 13.9 -0.3 15.3 -0.5 1.8 -0.3 2.9 0.1 3.3 1.1 0.5 1.3 -1.6 1.5 -15.4 1.5 -10 0 -16 -0.4 -16 -1z"/>
  <path d="M651 332.5 c0 -0.8 0.7 -1.5 1.5 -1.5 0.8 0 1.5 0.7 1.5 1.5 0 0.8 -0.7 1.5 -1.5 1.5 -0.8 0 -1.5 -0.7 -1.5 -1.5z"/>
  <path d="M715 310 c0 -0.5 0.7 -1 1.5 -1 0.8 0 1.5 0.5 1.5 1 0 0.6 -0.7 1 -1.5 1 -0.8 0 -1.5 -0.4 -1.5 -1z"/>
  <path d="M633.3 309.3 c0.9 -0.2 2.5 -0.2 3.5 0 0.9 0.3 0.1 0.5 -1.8 0.5 -1.9 0 -2.7 -0.2 -1.7 -0.5z"/>
  <path d="M450.3 284.9 l0.2 -18.1 3.3 -2.9 c2.8 -2.5 4 -2.9 9.3 -2.9 5.6 0 6.4 0.3 9.5 3.4 l3.4 3.4 0 17.6 0 17.6 -13 0 -12.9 0 0.2 -18.1z"/>
  <path d="M761 299 c0 -0.5 0.7 -1 1.5 -1 0.8 0 1.5 0.5 1.5 1 0 0.6 -0.7 1 -1.5 1 -0.8 0 -1.5 -0.4 -1.5 -1z"/>
  <path d="M737.3 290 c0 -3.6 0.2 -5 0.4 -3.2 0.2 1.7 0.2 4.7 0 6.5 -0.2 1.7 -0.4 0.3 -0.4 -3.3z"/>
  <path d="M597.4 283.7 c-0.3 -0.8 -0.4 -4.5 -0.2 -8.3 l0.3 -6.9 7.8 -0.3 7.7 -0.3 0 7.1 c0 5.6 -0.3 7 -1.5 7 -2 0 -2.2 -11.6 -0.2 -12.3 0.6 -0.3 -2.1 -0.6 -6 -0.6 l-7.3 -0.1 0 6.5 0 6.5 5.4 0 c5.8 0 8.6 0.7 8.6 2.1 0 1.5 -14 1.1 -14.6 -0.4z"/>
 </g>
 <g fill="#095988">
  <path d="M336.8 541.3 c1.2 -0.2 3.2 -0.2 4.5 0 1.2 0.2 0.2 0.4 -2.3 0.4 -2.5 0 -3.5 -0.2 -2.2 -0.4z"/>
  <path d="M355.3 541.3 c1.5 -0.2 3.9 -0.2 5.5 0 1.5 0.2 0.2 0.4 -2.8 0.4 -3 0 -4.3 -0.2 -2.7 -0.4z"/>
  <path d="M292 512.5 c-0.6 -0.8 -1.3 -2.2 -1.5 -3.2 -0.2 -1 -0.4 -2 -0.5 -2.3 -0.1 -0.3 -0.2 -0.8 -0.1 -1.2 0 -0.5 -0.4 -0.8 -1.1 -0.8 -0.6 0 -0.8 -0.3 -0.5 -0.7 0.4 -0.3 0.2 -1.2 -0.4 -2 -0.6 -0.7 -0.8 -1.3 -0.4 -1.3 0.4 0 0.2 -0.7 -0.5 -1.5 -0.7 -0.8 -0.9 -1.5 -0.4 -1.5 0.5 0 0.3 -0.4 -0.4 -0.8 -0.7 -0.5 -1.4 -2.3 -1.5 -4 -0.1 -1.8 -0.6 -3.2 -1.1 -3.2 -0.4 0 -0.6 -0.7 -0.2 -1.5 0.3 -0.8 0.1 -1.5 -0.5 -1.5 -0.6 0 -0.8 -0.9 -0.4 -2 0.4 -1.2 0.2 -2 -0.5 -2 -0.7 0 -1 -0.8 -0.7 -2 0.3 -1.1 0.1 -2 -0.3 -2 -0.4 0 -0.6 -0.9 -0.3 -2 0.3 -1.2 0 -2 -0.7 -2 -0.8 0 -1 -0.9 -0.6 -2.5 0.4 -1.5 0.2 -2.5 -0.4 -2.5 -0.7 0 -0.9 -0.8 -0.5 -2 0.3 -1.1 0.3 -2.5 -0.2 -3.2 -0.8 -1.4 -1.3 -4 -1.6 -9.8 -0.1 -1.9 -0.6 -4.1 -1 -4.7 -0.4 -0.7 -0.5 -2.9 -0.1 -4.8 0.8 -4.2 -0.8 -6.5 -4.5 -6.5 -3.3 0 -7.7 -2.3 -7.3 -3.8 0.1 -0.7 -0.3 -1.2 -0.8 -1.2 -0.6 0 -1 -0.8 -0.8 -1.7 0.2 -1.4 -0.7 -1.9 -4.7 -2.5 -2.8 -0.4 -5.4 -0.3 -6.1 0.3 -0.6 0.5 -2.9 1.1 -5 1.3 -2.1 0.1 -4.7 0.6 -5.6 1 -0.9 0.4 -2.2 0.5 -2.8 0.1 -0.5 -0.3 -1 -0.1 -1 0.5 0 0.6 -0.6 1 -1.2 0.9 -0.7 -0.1 -2 0.1 -2.8 0.4 -6.5 2.6 -32.6 4.5 -34.6 2.4 -0.3 -0.3 -1.2 -0.3 -2 0 -0.8 0.3 -1.4 0 -1.4 -0.7 0 -0.6 -0.5 -0.8 -1 -0.5 -0.6 0.3 -1 0.1 -1 -0.5 0 -0.6 -0.4 -0.9 -0.9 -0.6 -0.5 0.3 -1.2 -0.1 -1.5 -1 -0.3 -0.8 -1 -1.3 -1.5 -1 -1.1 0.7 -5.3 -4.8 -4.4 -5.8 0.3 -0.3 0.1 -0.6 -0.5 -0.6 -0.7 0 -1.1 -0.3 -1.1 -0.7 0.1 -0.5 0 -1 -0.1 -1.3 -1 -2.4 -0.6 -12.9 0.6 -14.7 0.8 -1.3 1.3 -2.5 1.2 -2.7 -0.5 -0.8 3.5 -4.6 4.9 -4.6 0.7 0 1.3 -0.5 1.3 -1.1 0 -0.5 0.5 -0.7 1 -0.4 0.6 0.3 1 0.1 1 -0.5 0 -0.6 0.5 -0.8 1 -0.5 0.6 0.3 1 0.1 1 -0.5 0 -0.6 0.5 -0.8 1 -0.5 0.6 0.4 1.6 0.2 2.3 -0.3 0.7 -0.5 6.2 -0.8 12.2 -0.6 14.5 0.4 14.5 0.4 14.5 1.3 0 0.5 1.8 0.8 4.1 0.8 2.3 0 4.4 0.4 4.8 0.9 0.3 0.5 1.8 1 3.4 1.1 1.5 0 3.5 0.4 4.5 0.8 0.9 0.4 3.4 0.9 5.6 1.1 2.1 0.2 4.3 0.7 4.9 1.1 3.3 2 11.7 -1.3 10.1 -3.9 -0.3 -0.5 0 -0.8 0.5 -0.8 0.6 0 1.1 -0.7 1.1 -1.6 0 -0.8 0.5 -1.2 1 -0.9 0.6 0.3 1 0.2 1 -0.4 0 -0.6 1.5 -1 3.3 -0.9 1.7 0.1 3.9 0 4.7 0 1.7 -0.2 4.3 -7.3 3.4 -9.5 -0.3 -0.8 -0.1 -1.8 0.4 -2.1 0.6 -0.3 0.8 -1.5 0.5 -2.6 -0.3 -1.1 0 -2.6 0.6 -3.4 0.6 -0.7 0.9 -2.1 0.5 -3 -0.3 -0.9 -0.1 -1.6 0.6 -1.6 0.7 0 0.9 -0.8 0.5 -2 -0.3 -1.1 -0.2 -2 0.3 -2 0.6 0 0.8 -0.8 0.5 -1.9 -0.3 -1 0 -2.2 0.6 -2.5 0.5 -0.4 0.8 -1.3 0.4 -2.1 -0.3 -0.8 0 -1.5 0.6 -1.5 0.6 0 0.8 -0.6 0.5 -1.4 -0.3 -0.8 -0.1 -1.7 0.5 -2 0.6 -0.4 0.8 -1.3 0.4 -2.1 -0.3 -0.8 0 -1.5 0.7 -1.5 0.7 0 1 -0.7 0.7 -1.5 -0.4 -0.8 -0.2 -1.7 0.4 -2 0.5 -0.4 0.7 -1.1 0.4 -1.6 -0.4 -0.5 -0.1 -0.9 0.5 -0.9 0.7 0 1 -0.7 0.6 -1.5 -0.3 -0.8 -0.1 -1.5 0.5 -1.5 0.6 0 0.9 -0.7 0.5 -1.5 -0.3 -0.8 -0.1 -1.5 0.5 -1.5 0.6 0 0.7 -0.4 0.4 -1 -0.3 -0.5 0 -2 0.7 -3.2 0.6 -1.3 1.3 -3 1.4 -3.8 0.2 -0.8 0.7 -1.6 1.3 -1.8 0.5 -0.2 0.7 -1 0.4 -1.8 -0.3 -0.8 0 -1.4 0.7 -1.4 0.6 0 0.8 -0.4 0.5 -1 -0.3 -0.6 -0.1 -1 0.4 -1 0.6 0 1 -0.3 0.9 -0.7 -0.1 -0.5 0.5 -2.2 1.5 -3.9 0.9 -1.7 1.3 -3.4 1 -3.8 -0.4 -0.3 -0.1 -0.6 0.6 -0.6 0.7 0 0.9 -0.4 0.6 -1 -0.3 -0.5 -0.1 -1 0.5 -1 0.6 0 0.8 -0.4 0.5 -1 -0.3 -0.6 -0.1 -1 0.5 -1 0.6 0 0.9 -0.4 0.6 -0.9 -0.3 -0.4 0.3 -1.9 1.4 -3.1 1.1 -1.3 2 -2.9 2 -3.7 0 -0.7 0.5 -1.3 1.1 -1.3 0.5 0 0.7 -0.4 0.4 -1 -0.3 -0.5 -0.1 -1 0.4 -1 0.6 0 1.1 -0.7 1.1 -1.5 0 -0.8 0.5 -1.5 1.1 -1.5 0.5 0 0.8 -0.4 0.5 -0.8 -0.3 -0.5 0.4 -1.8 1.4 -3 1.1 -1.2 2 -2.6 2 -3.2 0 -0.5 0.5 -1 1.1 -1 0.5 0 0.7 -0.5 0.4 -1 -0.3 -0.6 0.1 -1.3 0.9 -1.6 0.9 -0.3 1.6 -1.3 1.6 -2 0 -0.8 0.7 -1.7 1.5 -2 0.8 -0.4 1.2 -1 0.9 -1.5 -0.3 -0.5 0.2 -1.2 1 -1.5 0.9 -0.3 1.6 -1.2 1.6 -2 0 -0.7 0.9 -1.8 2 -2.4 1.1 -0.6 1.8 -1.5 1.5 -2 -0.3 -0.5 0.3 -1.5 1.5 -2.2 1.1 -0.7 2 -1.8 2 -2.5 0 -0.6 1.2 -2 2.7 -3.1 2.6 -1.9 2.6 -2.2 1.4 -4.6 -0.8 -1.4 -1.8 -2.3 -2.3 -2 -0.4 0.3 -0.8 -0.2 -0.8 -1.1 0 -0.8 -0.7 -1.8 -1.5 -2.1 -0.8 -0.4 -1.2 -1 -0.9 -1.5 0.3 -0.5 0.2 -0.9 -0.3 -0.9 -0.4 0 -0.7 -2.7 -0.5 -6.1 0.1 -3.3 -0.2 -5.8 -0.6 -5.5 -0.5 0.3 -2.6 -1.1 -4.6 -3.2 -4.9 -5 -7.6 -7.3 -7.6 -6.6 0 0.3 -0.9 -0.4 -2 -1.7 -1 -1.3 -1.9 -2 -2 -1.4 0 0.5 -0.7 -0.1 -1.6 -1.3 -0.8 -1.2 -1.9 -2 -2.4 -1.7 -0.4 0.3 -1.1 -0.2 -1.4 -1.1 -0.3 -0.8 -1 -1.2 -1.6 -0.9 -0.6 0.3 -1.3 -0.1 -1.6 -0.9 -0.3 -0.9 -1.2 -1.6 -1.9 -1.6 -0.7 0 -1.5 -0.7 -1.9 -1.5 -0.3 -0.8 -0.9 -1.4 -1.4 -1.3 -0.4 0.2 -2.3 -1.3 -4.1 -3.2 -1.8 -1.9 -3 -2.8 -2.6 -2 0.4 0.8 -1.8 -1.2 -4.9 -4.4 -3 -3.2 -5.3 -6.3 -5 -6.8 0.3 -0.4 -0.2 -1.1 -1 -1.4 -0.9 -0.3 -1.3 -1 -1 -1.5 0.3 -0.5 0 -0.9 -0.6 -0.9 -0.7 0 -1 -0.7 -0.6 -1.5 0.3 -0.8 0.1 -1.5 -0.4 -1.5 -0.5 0 -0.7 -0.6 -0.4 -1.4 0.3 -0.8 0.1 -1.7 -0.5 -2.1 -1.3 -0.8 -1.5 -5.5 -0.2 -5.5 0.5 0 0.7 -0.9 0.4 -2 -0.3 -1.2 0 -2 0.6 -2 0.7 0 0.9 -0.5 0.6 -1 -0.3 -0.5 -0.1 -1 0.5 -1 0.6 0 0.9 -0.4 0.6 -0.9 -0.3 -0.5 0.1 -1.2 1 -1.5 0.8 -0.3 1.3 -1 1 -1.5 -0.3 -0.5 0.1 -1.4 0.9 -2.1 0.8 -0.7 1.5 -0.9 1.5 -0.4 0 0.5 0.7 0.1 1.4 -0.9 0.8 -1 1.8 -1.9 2.3 -1.9 0.4 0 1.7 -0.4 2.9 -0.8 4.2 -1.6 17.4 0.8 17.4 3.1 0 0.6 0.4 0.8 0.9 0.5 0.5 -0.3 1.2 0.1 1.5 0.9 0.3 0.9 1.7 2 3.1 2.5 1.4 0.5 2.5 1.6 2.5 2.4 0 0.7 1.1 2.1 2.5 3 1.4 0.9 2.3 2.1 2 2.7 -0.4 0.5 0.1 1.2 0.9 1.5 0.9 0.3 1.3 1 1 1.5 -0.3 0.5 0.2 1.2 1 1.5 0.9 0.3 1.6 1.2 1.6 2 0 0.8 0.5 1.4 1.1 1.4 0.5 0 0.7 0.5 0.4 1 -0.3 0.6 0.1 1.3 0.9 1.6 0.9 0.3 1.3 1 1 1.5 -0.3 0.5 0.2 1.2 1 1.5 0.9 0.3 1.4 0.9 1.1 1.4 -0.2 0.4 0.4 1.6 1.5 2.7 1 1.2 1.6 2.3 1.3 2.7 -0.3 0.3 0.2 0.8 1.1 1.2 0.9 0.3 1.4 1 1.1 1.4 -0.3 0.4 0.2 1.1 1.1 1.4 0.8 0.3 1.2 1 0.9 1.6 -0.3 0.5 -0.1 1 0.4 1 0.6 0 1.1 0.7 1.1 1.5 0 0.8 0.5 1.5 1.1 1.5 0.5 0 0.7 0.5 0.4 1 -0.3 0.6 0.1 1.3 0.9 1.6 0.9 0.3 1.6 1.2 1.6 1.8 0 0.7 1.1 2.2 2.3 3.3 2.8 2.3 7.7 3.8 7.7 2.3 0 -1.5 5.2 0 6.8 1.9 1.1 1.3 1.2 1.3 0.6 0.1 -0.5 -1 0 -0.9 1.4 0.4 1.2 1.1 2.2 2.5 2.2 3.1 0 1.8 3 2.8 4.5 1.5 0.6 -0.5 1.5 -0.7 1.8 -0.3 0.4 0.3 0.9 -0.2 1.3 -1.1 0.3 -0.9 1.3 -1.6 2 -1.6 0.8 0 1.7 -0.7 2 -1.5 0.4 -0.8 1 -1.2 1.5 -0.9 0.5 0.3 1.2 -0.2 1.5 -1 0.3 -0.9 1 -1.3 1.5 -1 0.5 0.3 1.2 -0.2 1.5 -1 0.3 -0.9 1 -1.4 1.4 -1.1 0.4 0.3 1.1 -0.2 1.4 -1.1 0.3 -0.8 1 -1.2 1.6 -0.9 0.5 0.3 1 0.1 1 -0.4 0 -0.6 0.7 -1.1 1.5 -1.1 0.8 0 1.5 -0.5 1.5 -1.1 0 -0.5 0.5 -0.7 1 -0.4 0.6 0.3 1 0.1 1 -0.5 0 -0.6 0.4 -0.8 1 -0.5 0.5 0.3 1 0.1 1 -0.4 0 -0.6 0.7 -1.1 1.5 -1.1 0.8 0 1.5 -0.5 1.5 -1.1 0 -0.5 0.4 -0.7 1 -0.4 0.5 0.3 1 0.1 1 -0.5 0 -0.6 0.4 -0.8 1 -0.5 0.5 0.3 1 0.1 1 -0.5 0 -0.6 0.4 -0.8 1 -0.5 0.6 0.3 1 0.1 1 -0.5 0 -0.6 0.4 -0.8 1 -0.5 0.6 0.3 1 0.1 1 -0.5 0 -0.6 0.5 -0.8 1 -0.5 0.6 0.3 1 0.1 1 -0.5 0 -0.6 0.5 -0.8 1 -0.5 0.6 0.3 1 0.1 1 -0.5 0 -0.6 0.4 -0.9 0.9 -0.6 0.5 0.4 1.1 0.1 1.3 -0.4 0.2 -0.6 1.3 -1.2 2.6 -1.3 1.2 0 2.2 -0.5 2.2 -1 0 -0.4 0.4 -0.5 1 -0.2 0.5 0.3 1 0.2 1 -0.4 0 -0.6 0.7 -0.8 1.5 -0.5 0.8 0.4 1.5 0.1 1.5 -0.7 0 -0.7 0.3 -1 0.6 -0.6 0.4 0.3 1.3 -0.1 2.1 -0.9 0.9 -0.8 2.2 -1.3 2.9 -1 0.8 0.3 1.4 0.1 1.4 -0.4 0 -0.6 0.3 -0.9 0.8 -0.9 0.4 0.1 0.9 0.1 1.2 -0.1 0.3 -0.1 1.6 -0.4 3 -0.6 1.3 -0.2 2.7 -0.9 3 -1.5 0.4 -0.5 1.5 -0.7 2.5 -0.3 1.3 0.5 1.6 0.4 1 -0.5 -0.5 -1 -0.2 -1.1 1.4 -0.6 1.2 0.4 2.1 0.2 2.1 -0.4 0 -0.6 0.7 -0.8 1.5 -0.5 0.8 0.4 1.5 0.1 1.5 -0.5 0 -0.6 0.6 -0.8 1.4 -0.5 0.8 0.3 1.7 0 2.1 -0.5 0.3 -0.6 1.1 -0.9 1.6 -0.5 0.5 0.3 1.6 0 2.4 -0.6 0.8 -0.6 1.9 -0.9 2.4 -0.6 0.5 0.4 1.3 0.1 1.6 -0.5 0.4 -0.5 1.3 -0.8 2.1 -0.5 0.7 0.3 1.6 0.1 1.9 -0.5 0.4 -0.5 1.1 -0.7 1.6 -0.3 0.5 0.3 1.6 0.1 2.3 -0.5 0.7 -0.6 2.2 -0.9 3.4 -0.6 1.2 0.2 2.2 -0.1 2.2 -0.6 0 -0.7 1.2 -0.8 3 -0.4 1.7 0.4 3 0.2 3 -0.3 0 -0.8 1.7 -1.1 9.4 -1.2 4 -0.1 6.7 -2.6 6 -5.6 -0.3 -1.3 -0.3 -3.2 0.2 -4.1 0.4 -1 0.8 -2.1 0.8 -2.5 0.2 -1.5 3.6 -4.8 5.1 -4.8 1.1 0 1.4 -1.4 1.2 -7 -0.1 -3.8 -0.5 -7 -0.9 -7 -0.4 0 -0.5 -0.7 -0.2 -1.5 0.4 -0.8 0.1 -2.2 -0.6 -3 -0.7 -0.8 -0.9 -2.2 -0.6 -3.1 0.4 -0.9 0.2 -2.2 -0.2 -2.8 -0.5 -0.6 -1 -1.8 -1 -2.6 -0.1 -0.8 -0.4 -3.3 -0.8 -5.5 -0.3 -2.2 -0.6 -5.6 -0.6 -7.5 0.1 -1.9 -0.3 -3.9 -0.8 -4.5 -0.9 -1.1 -0.6 -21.2 0.3 -22.1 0.3 -0.3 0.3 -1.2 0 -2 -0.3 -0.8 0 -1.4 0.7 -1.4 0.7 0 1 -0.7 0.6 -1.5 -0.3 -0.8 -0.1 -1.5 0.5 -1.5 0.6 0 0.7 -0.4 0.4 -1 -0.3 -0.5 -0.1 -1 0.6 -1 0.7 0 1 -0.2 0.7 -0.6 -0.7 -0.7 4.5 -6.1 5.5 -5.6 0.4 0.2 0.7 -0.2 0.7 -0.7 0 -0.6 0.3 -1 0.8 -1 0.4 0.1 0.9 0 1.2 -0.1 1.6 -0.6 14 -0.5 14 0.2 0 0.4 0.6 0.5 1.4 0.2 0.8 -0.3 2.4 0.4 3.5 1.5 1.2 1.2 2.4 2 2.9 1.9 0.4 -0.2 1.1 0.7 1.7 2 0.5 1.2 1.3 2.2 1.8 2.2 0.4 0 0.5 0.4 0.2 1 -0.3 0.5 -0.2 1 0.4 1 0.6 0 0.8 0.7 0.5 1.5 -0.4 0.8 -0.1 1.5 0.6 1.5 0.6 0 0.8 0.5 0.5 1 -0.4 0.6 -0.2 1.6 0.3 2.3 1.2 1.5 0.4 30.2 -0.8 30.2 -0.1 0 -0.4 2.2 -0.6 4.8 -0.2 2.7 -0.8 5.5 -1.4 6.3 -0.7 0.7 -0.9 1.8 -0.5 2.4 0.4 0.6 0.2 1.7 -0.4 2.4 -0.6 0.7 -0.9 2.1 -0.5 3 0.3 0.9 0.1 1.6 -0.5 1.6 -0.7 0 -0.9 0.9 -0.5 2.4 0.3 1.3 0.1 2.7 -0.6 3.1 -0.7 0.4 -0.9 2.2 -0.4 5.3 0.7 4.9 2.4 7.4 4.6 7 0.7 -0.2 1.3 0.4 1.4 1.2 0 0.8 0.4 2.3 0.9 3.3 0.4 1 0.5 3.3 0.2 5.2 -0.3 1.9 -0.1 3.7 0.4 4.1 1.1 0.7 6.8 1.4 11.2 1.5 1.5 0 2.7 0.5 2.7 1.1 0 0.6 1.1 0.8 2.9 0.5 1.6 -0.3 3.1 -0.3 3.5 0 0.3 0.3 2.4 0.7 4.7 0.9 2.3 0.2 4.6 0.7 5.2 1.1 0.6 0.4 2.4 0.8 4.1 1 1.6 0.2 3.5 0.8 4.2 1.4 0.7 0.6 1.8 0.8 2.4 0.4 0.5 -0.3 1 -0.2 1 0.2 0 0.5 0.8 0.9 1.8 1 3.3 0.2 7.6 1.4 8.9 2.5 0.7 0.6 1.3 0.7 1.3 0.3 0 -0.4 0.7 -0.1 1.7 0.6 0.9 0.8 1.8 1.3 2 1.2 0.1 -0.2 0.4 -0.3 0.6 -0.2 0.1 0 1 0.2 2 0.4 1 0.2 2.6 0.7 3.5 1.1 2 0.9 2 0.9 5.5 1.8 1.5 0.5 2.7 1.2 2.7 1.8 0 0.5 0.4 0.7 0.9 0.3 0.5 -0.3 1.2 -0.1 1.6 0.5 0.4 0.6 1.1 0.8 1.6 0.5 0.5 -0.4 0.9 -0.2 0.9 0.3 0 0.5 0.6 0.9 1.3 0.9 2 0 17.7 7.5 17.7 8.4 0 0.5 0.3 0.8 0.8 0.7 1.1 -0.4 11.2 5.4 11.2 6.4 0 0.4 0.7 0.8 1.5 0.8 0.8 0 1.5 0.5 1.5 1.2 0 0.6 0.3 0.9 0.6 0.5 0.7 -0.6 8.2 4.1 12.2 7.6 l2.2 2.1 3.2 -3 c1.7 -1.6 3.9 -3.7 5 -4.7 2 -1.9 3.6 -2.1 7.1 -0.8 2.2 0.9 3 0.4 6.9 -3.7 2.5 -2.6 4.7 -5.2 4.9 -5.8 0.2 -0.6 4.5 -7.6 9.4 -15.5 10.2 -16.1 20.6 -27.8 26.8 -29.8 5.1 -1.7 13.8 -0.8 18.2 1.9 8.4 5.2 11.4 17.6 6.5 27 -3.3 6.5 -13.7 16.3 -27.4 26.1 -6.6 4.6 -14.4 10.6 -17.3 13.3 l-5.3 4.8 0.6 4.9 c0.5 3.7 0.3 4.9 -0.6 4.9 -0.8 0 -1 0.3 -0.6 0.7 0.3 0.4 -0.8 2.2 -2.6 4 l-3.2 3.3 3.6 3.8 c1.9 2 5.4 6.2 7.7 9.2 2.3 3 4.6 6 5.1 6.7 0.7 0.9 -4.8 1.2 -23.6 1.3 l-24.6 0.1 -7.5 -7.1 c-4.1 -3.9 -11.2 -9.7 -15.7 -13.1 -4.4 -3.3 -8.8 -6.6 -9.7 -7.4 -0.9 -0.7 -2.6 -1.6 -3.8 -2 -1.2 -0.3 -2.1 -1 -2.1 -1.4 0 -0.4 -1.6 -1.3 -3.5 -2 -1.9 -0.7 -4 -1.8 -4.7 -2.5 -1.6 -1.5 -25.1 -11.6 -32.8 -14.1 -3 -1 -5.9 -2.1 -6.5 -2.5 -0.5 -0.3 -2.3 -0.7 -3.9 -0.8 -1.7 -0.1 -3.3 -0.7 -3.6 -1.3 -0.4 -0.5 -1.1 -0.9 -1.6 -0.7 -1.3 0.4 -16.4 -2.5 -16.4 -3.1 0 -0.4 -1.5 -0.7 -3.2 -0.8 -1.8 -0.1 -6 -0.4 -9.3 -0.8 -7.1 -0.7 -37.8 -0.7 -45 0.1 -8.5 0.8 -9.9 1.1 -11.5 1.7 -0.8 0.3 -2.3 0.6 -3.2 0.6 -5.3 0.4 -6.3 0.5 -6.8 1.2 -0.3 0.5 -2.3 1 -4.5 1.3 -2.2 0.2 -4 0.5 -4 0.6 0 0.1 -0.8 0.3 -1.7 0.6 -1 0.2 -2.6 0.6 -3.5 0.8 -1 0.3 -1.9 0.5 -2 0.6 -0.2 0.2 -0.6 0.3 -1 0.4 -0.5 0.1 -1.4 0.5 -2 0.9 -0.7 0.5 -1.7 0.5 -2.3 0.2 -0.5 -0.3 -1 -0.1 -1 0.5 0 0.7 -0.7 1 -1.5 0.6 -0.8 -0.3 -1.5 -0.1 -1.5 0.5 0 0.6 -0.7 0.9 -1.5 0.5 -0.8 -0.3 -1.5 -0.1 -1.5 0.5 0 0.6 -0.4 0.8 -0.9 0.4 -0.5 -0.3 -1.2 -0.1 -1.6 0.5 -0.4 0.6 -1.1 0.8 -1.6 0.5 -0.5 -0.4 -0.9 -0.1 -0.9 0.5 0 0.7 -0.7 1 -1.5 0.6 -0.8 -0.3 -1.5 -0.1 -1.5 0.5 0 0.6 -0.5 0.7 -1 0.4 -0.6 -0.3 -1 -0.1 -1 0.5 0 0.6 -0.5 0.8 -1 0.5 -0.5 -0.3 -1 -0.2 -1 0.2 0 0.9 -6 3.4 -7.1 3 -0.3 -0.1 -1.3 0.6 -2.3 1.5 -1 1 -2.4 1.8 -3.2 1.8 -0.8 0 -1.4 0.5 -1.4 1.1 0 0.5 -0.5 0.7 -1 0.4 -0.6 -0.3 -1 -0.1 -1 0.5 0 0.6 -0.5 0.8 -1 0.5 -0.6 -0.3 -1 -0.1 -1 0.4 0 0.6 -0.7 1.1 -1.5 1.1 -0.8 0 -1.5 0.5 -1.5 1 0 0.6 -0.5 1 -1.1 1 -0.6 0 -1.7 0.7 -2.6 1.5 -0.8 0.8 -1.9 1.3 -2.4 0.9 -0.5 -0.3 -1.2 0.2 -1.5 1 -0.3 0.9 -1.2 1.6 -1.9 1.6 -0.7 0 -1.6 0.7 -1.9 1.6 -0.3 0.8 -1 1.3 -1.5 0.9 -0.6 -0.3 -1.5 0.4 -2.1 1.5 -0.6 1.1 -1.5 1.8 -2 1.5 -0.4 -0.3 -1.8 0.7 -3 2.2 -1.2 1.6 -1.8 2.1 -1.5 1.3 0.4 -0.8 -1 0.2 -3.1 2.3 -17.6 17.1 -25.4 25.4 -25.4 26.9 0 0.4 -0.9 1.3 -2 2 -1.1 0.7 -2 1.9 -2 2.6 0 0.7 -0.7 1.5 -1.5 1.8 -0.8 0.4 -1.5 1.2 -1.5 1.9 0 0.7 -0.7 1.6 -1.6 1.9 -0.8 0.3 -1.3 1 -1 1.5 0.3 0.5 -0.1 1.2 -1 1.5 -0.8 0.3 -1.2 1 -0.9 1.6 0.3 0.6 -0.1 1.3 -0.9 1.6 -0.9 0.3 -1.3 1 -1 1.5 0.3 0.5 0.2 0.9 -0.3 0.9 -0.4 0 -1.9 2.3 -3.2 5 -1.4 2.8 -2.8 5 -3.2 5 -0.4 0 -1.3 1.6 -1.9 3.5 -0.6 1.9 -1.6 3.5 -2.1 3.5 -0.6 0 -0.7 0.5 -0.4 1 0.3 0.6 0.1 1 -0.4 1 -0.6 0 -1 0.3 -1 0.8 0.4 2.4 -0.2 4.2 -1.3 3.6 -0.8 -0.5 -0.9 -0.2 -0.5 0.9 0.3 1 0.2 1.7 -0.4 1.7 -0.6 0 -0.7 0.5 -0.4 1 0.3 0.6 0.1 1 -0.5 1 -0.6 0 -0.8 0.5 -0.5 1 0.3 0.6 0.2 1 -0.4 1 -0.6 0 -0.8 0.6 -0.5 1.4 0.3 0.7 -0.1 2 -0.9 2.7 -0.7 0.8 -1.2 2 -0.9 2.7 0.2 0.6 -0.1 1.2 -0.7 1.2 -0.6 0 -1 0.3 -1 0.8 0.1 0.4 0 1 -0.1 1.5 -0.1 0.4 -0.4 1.2 -0.5 1.7 -0.1 0.6 -0.4 1.2 -0.5 1.5 -0.1 0.3 -0.4 1 -0.5 1.5 -0.1 0.6 -0.3 1.1 -0.5 1.3 -0.1 0.1 -0.4 1.5 -0.6 3.2 -0.3 1.6 -1 3.3 -1.6 3.6 -0.6 0.4 -0.8 1.1 -0.4 1.7 0.3 0.6 0.2 1.3 -0.3 1.7 -0.6 0.3 -0.8 1.2 -0.5 1.9 0.3 0.8 0.1 1.7 -0.5 2 -0.6 0.4 -0.8 1.3 -0.4 2.1 0.3 0.8 0 1.5 -0.7 1.5 -0.7 0 -1 0.8 -0.7 2 0.3 1.1 0.1 2.3 -0.4 2.6 -0.6 0.3 -0.7 1.4 -0.4 2.4 0.3 1 0.1 2.1 -0.4 2.5 -1.1 0.6 -1.2 1.8 -1.2 8.4 0 1.9 -0.4 3.9 -0.8 4.5 -0.5 0.6 -1 3.4 -1.1 6.1 -0.4 14.7 -0.3 23.8 0.4 31 0.4 4.4 0.8 9.4 0.9 11 0.1 1.7 0.5 3.5 0.9 4 0.6 1.1 1.8 7.8 2.1 12.3 0.1 1.2 0.5 2.2 0.9 2.2 0.3 0 1 1.9 1.4 4.3 0.9 4.9 0.9 4.7 1.8 6.9 0.4 0.9 0.9 2.2 1.1 3 0.2 0.7 0.6 2.4 1.1 3.8 0.4 1.4 0.6 2.7 0.5 2.9 -0.2 0.2 0.2 0.7 0.8 1 0.6 0.4 1.2 1.6 1.4 2.6 0.1 1.1 0.6 2.5 0.9 3 0.9 1.5 -0.7 3.9 -2.1 3.1 -0.6 -0.4 -1.1 -0.2 -1.1 0.3 0 0.6 -0.3 1.1 -0.7 1 -0.5 -0.1 -1.7 0.2 -2.8 0.5 -1.1 0.4 -2.4 0.6 -2.9 0.6 -0.5 -0.1 -1.2 0.3 -1.6 1 -0.4 0.6 -1.7 1.2 -2.8 1.3 -1.2 0.1 -2.2 0.5 -2.2 0.9 0 0.4 -0.3 0.7 -0.7 0.6 -0.5 -0.1 -2.2 0.5 -3.9 1.5 -1.7 0.9 -3.4 1.3 -3.8 1 -0.3 -0.4 -0.6 -0.1 -0.6 0.6 0 0.7 -0.4 0.9 -1 0.6 -0.5 -0.3 -1 -0.2 -1 0.3 0 0.5 -1.1 1.4 -2.4 2 -1.9 0.8 -2.7 0.8 -3.6 -0.3z"/>
 </g>
</svg>